<mxfile host="65bd71144e">
    <diagram id="n-I4YXkVn4wm5LCXJ67a" name="ページ1">
        <mxGraphModel dx="162" dy="1803" grid="0" gridSize="10" guides="1" tooltips="1" connect="1" arrows="1" fold="1" page="1" pageScale="1" pageWidth="1169" pageHeight="827" background="#ffffff" math="0" shadow="0">
            <root>
                <mxCell id="0"/>
                <mxCell id="1" parent="0"/>
                <mxCell id="38" value="&lt;font color=&quot;#000000&quot;&gt;AWS Cloud&lt;/font&gt;" style="points=[[0,0],[0.25,0],[0.5,0],[0.75,0],[1,0],[1,0.25],[1,0.5],[1,0.75],[1,1],[0.75,1],[0.5,1],[0.25,1],[0,1],[0,0.75],[0,0.5],[0,0.25]];outlineConnect=0;html=1;whiteSpace=wrap;fontSize=12;fontStyle=0;container=1;pointerEvents=0;collapsible=0;recursiveResize=0;shape=mxgraph.aws4.group;grIcon=mxgraph.aws4.group_aws_cloud_alt;strokeColor=#36393d;fillColor=#E6E6E6;verticalAlign=top;align=left;spacingLeft=30;dashed=0;" parent="1" vertex="1">
                    <mxGeometry x="77" y="-1516" width="1015" height="455" as="geometry"/>
                </mxCell>
                <mxCell id="138" style="edgeStyle=none;rounded=0;html=1;exitX=0.5;exitY=1;exitDx=0;exitDy=0;exitPerimeter=0;entryX=0.5;entryY=0;entryDx=0;entryDy=0;entryPerimeter=0;strokeColor=#007FFF;fontSize=12;fontColor=#D86613;startArrow=none;startFill=0;" parent="38" source="30" target="23" edge="1">
                    <mxGeometry relative="1" as="geometry"/>
                </mxCell>
                <mxCell id="43" value="&lt;font color=&quot;#2c7600&quot; style=&quot;font-size: 13px;&quot;&gt;VPC&lt;/font&gt;" style="points=[[0,0],[0.25,0],[0.5,0],[0.75,0],[1,0],[1,0.25],[1,0.5],[1,0.75],[1,1],[0.75,1],[0.5,1],[0.25,1],[0,1],[0,0.75],[0,0.5],[0,0.25]];outlineConnect=0;html=1;whiteSpace=wrap;fontSize=12;fontStyle=0;container=1;pointerEvents=0;collapsible=0;recursiveResize=0;shape=mxgraph.aws4.group;grIcon=mxgraph.aws4.group_vpc;strokeColor=#2D7600;fillColor=#FFFFFF;verticalAlign=top;align=left;spacingLeft=30;fontColor=#ffffff;dashed=0;shadow=0;" parent="38" vertex="1">
                    <mxGeometry x="182" y="85" width="668" height="278" as="geometry"/>
                </mxCell>
                <mxCell id="48" value="&lt;font style=&quot;font-size: 13px;&quot;&gt;&amp;nbsp; &amp;nbsp; &amp;nbsp; ECS Fargate&lt;/font&gt;" style="points=[[0,0],[0.25,0],[0.5,0],[0.75,0],[1,0],[1,0.25],[1,0.5],[1,0.75],[1,1],[0.75,1],[0.5,1],[0.25,1],[0,1],[0,0.75],[0,0.5],[0,0.25]];outlineConnect=0;gradientColor=none;html=1;whiteSpace=wrap;fontSize=12;fontStyle=0;container=1;pointerEvents=0;collapsible=0;recursiveResize=0;shape=mxgraph.aws4.group;grIcon=mxgraph.aws4.group_ec2_instance_contents;strokeColor=#D86613;fillColor=#FFE6CC;verticalAlign=top;align=left;spacingLeft=30;fontColor=#D86613;dashed=0;shadow=0;" parent="43" vertex="1">
                    <mxGeometry x="357" y="47" width="230.68" height="196" as="geometry"/>
                </mxCell>
                <mxCell id="58" value="" style="shape=image;verticalLabelPosition=bottom;labelBackgroundColor=default;verticalAlign=top;aspect=fixed;imageAspect=0;image=data:image/svg+xml,PHN2ZyB4bWxucz0iaHR0cDovL3d3dy53My5vcmcvMjAwMC9zdmciIHdpZHRoPSI1MTEuMjI2MjU3MzI0MjE4NzUiIHZpZXdCb3g9IjAuMDAwMDEyODc0NjAzMjcxNDg0Mzc1IC0wLjAwMDAwOTUzNjc0MzE2NDA2MjUgNTExLjIyNjI1NzMyNDIxODc1IDE3OS42NTE0MTI5NjM4NjcyIiBwcmVzZXJ2ZUFzcGVjdFJhdGlvPSJ4TWlkWU1pZCIgaGVpZ2h0PSIxNzkuNjUxNDEyOTYzODY3MiI+PGcgZmlsbD0iI2MwMCI+PHBhdGggZD0ibTIxOS4xMTUzNjUgMTUwLjYzMzc1M3MyMi41NjkyNy0xLjkzNDUwOSAyMi41NjkyNy0zMS4wODExMDhjMC0yOS4xNDY1OTk3LTI3LjM0MTA1OC0zMS44NTQ5MTItMjcuMzQxMDU4LTMxLjg1NDkxMmgtNDkuMjY1NDkxdjkxLjk1MzY1MmgyNC43NjE3MTJ2LTIyLjE4MjM2N2wyMS40MDg1NjUgMjIuMTgyMzY3aDM2LjYyNjd6bS05LjU0MzU3Ny0xOC44MjkyMTloLTE5LjczMTk5di0yMS4wMjE2NjJoMTkuODYwOTU4czUuNTQ1NTkyIDIuMDYzNDc2IDUuNTQ1NTkyIDEwLjQ0NjM0N2MwIDguMzgyODcyLTUuNjc0NTYgMTAuNTc1MzE1LTUuNjc0NTYgMTAuNTc1MzE1em05My4yNDMzMjUtNDMuNDYxOTY0N2gtMjUuMTQ4NjE0Yy0xNy45MjY0NDkgMC0yMy45ODc5MSAxNi4yNDk4NzM3LTIzLjk4NzkxIDIzLjk4NzkwOTd2NjcuMzIwOTA2aDI1LjE0ODYxNXYtMTYuMTIwOTA2aDIzLjYwMTAwOHYxNi4xMjA5MDZoMjQuMzc0ODExdi02Ny4zMjA5MDZjMC0xOS42MDMwMjMxLTE3Ljc5NzQ4MS0yMy45ODc5MDk3LTIzLjk4NzkxLTIzLjk4NzkwOTd6bS0uMzg2OTAxIDQ5LjEzNjUyMzdoLTIzLjcyOTk3NXYtMjIuMzExMzM1czAtNS4wMjk3MjMgNy44NjcwMDItNS4wMjk3MjNoOC42NDA4MDZjNi45NjQyMzIgMCA3LjA5MzE5OSA1LjAyOTcyMyA3LjA5MzE5OSA1LjAyOTcyM3YyMi4zMTEzMzV6bTM1Ljg1Mjg5Ni00OS4xMzY1MjM3aDI2LjE4MDM1M3Y5MS4zMDg4MTU3aC0yNi4xODAzNTN6bTYyLjkzNjAyIDY3LjcwNzgwODd2LTY3LjcwNzgwODdoLTI2LjA1MTM4NXY2Ny43MDc4MDg3IDIzLjYwMTAwN2gyNi4wNTEzODUgMzUuMjA4MDYxdi0yMy42MDEwMDd6bTQzLjg0ODg2Ny4yNTc5MzR2MjMuMzQzMDczaDQyLjE3MjI5MmM4LjY0MDgwNiAwIDIzLjQ3MjA0LTYuMzE5Mzk1IDIzLjk4NzkwOS0yMy45ODc5MDl2LTkuMDI3NzA4YzAtMTUuMDg5MTY5LTEyLjM4MDg1Ni0yMy45ODc5MDktMjMuOTg3OTA5LTIzLjk4NzkwOWgtMjEuMDIxNjYydi0xMC44MzMyNDloNDEuNjU2NDIzdi0yMy40NzIwNDA3aC0zOS45Nzk4NDljLTEwLjMxNzM4IDAtMjQuMTE2ODc3IDguNTExODM4OC0yNC4xMTY4NzcgMjQuMzc0ODEwN3Y4LjEyNDkzN2MwIDE1Ljg2Mjk3MyAxMy42NzA1MjkgMjMuOTg3OTEgMjQuMTE2ODc3IDIzLjk4NzkxIDI5LjAxNzYzMi4xMjg5NjctNi45NjQyMzIgMCAxOS44NjA5NTcgMHYxMS4zNDkxMTh6Ii8+PHBhdGggZD0ibTkuMDI3NzA3ODEgMTc5LjUyMjQxOGgxMDEuODg0MTMxMTlzLTE5LjQ3NDA1NTYtODguODU4NDM4MiA0NS4wMDk1NzItMTI0Ljg0MDMwMjFjMTQuMDU3NDMtNi44MzUyNjQ1IDU4LjgwOTA2OC0zMi4zNzA3ODA5IDEzMi4wNjI0NjggMjEuNzk1NDY2IDIuMzIxNDExLTEuOTM0NTA4OSA0LjUxMzg1NC0zLjQ4MjExNTkgNC41MTM4NTQtMy40ODIxMTU5cy02Ny4wNjI5NzItNjYuOTM0MDA1MDQtMTQxLjczNTAxMy01OS40NTM5MDQzYy0zNy41Mjk0NzEgMy4zNTMxNDg2LTgzLjY5OTc0NzcgMzcuNTI5NDcxLTExMC43ODI4NzExIDgyLjY2ODAxMDEtMjcuMDgzMTIzNSA0NS4xMzg1MzkyLTMwLjk1MjE0MTA5IDgzLjMxMjg0NjItMzAuOTUyMTQxMDkgODMuMzEyODQ2MnptMjEyLjI4MDEwMTE5LTE1OC43NTg2OS41MTU4NjktOC42NDA4MDYxYy0xLjE2MDcwNi0uNjQ0ODM2My00LjM4NDg4Ny0yLjE5MjQ0MzMxLTEyLjUwOTgyNC00LjUxMzg1Mzg5bC0uNTE1ODY5IDguNTExODM4NzljNC4yNTU5MTkgMS40MTg2Mzk4IDguMzgyODcxIDIuOTY2MjQ2OSAxMi41MDk4MjQgNC42NDI4MjEyem0tMTIuMjUxODkgMjcuMzQxMDU3OS0uNTE1ODY5IDguMTI0OTM3YzQuMjU1OTIuMTI4OTY3MyA4LjUxMTgzOS42NDQ4MzYzIDEyLjc2Nzc1OSAxLjU0NzYwNzFsLjUxNTg2OS03Ljk5NTk2OThjLTQuMzg0ODg3LS45MDI3NzA4LTguNjQwODA2LTEuNDE4NjM5OC0xMi43Njc3NTktMS42NzY1NzQzem0tNDcuNzE3ODg0LTQwLjIzNzc4MzM4aDEuMjg5NjczbC0yLjU3OTM0NS03Ljg2NzAwMjUyYy0zLjk5Nzk4NSAwLTguMTI0OTM3LjI1NzkzNDUxLTEyLjM4MDg1Ny43NzM4MDM1M2wyLjQ1MDM3OCA3LjYwOTA2ODAxYzMuNzQwMDUxLS4zODY5MDE3NyA3LjQ4MDEwMS0uNTE1ODY5MDIgMTEuMjIwMTUxLS41MTU4NjkwMnptNi4xOTA0MjggNDcuNDU5OTQ5NTggMi45NjYyNDcgOC44OTg3NDA2YzMuNzQwMDUxLTEuODA1NTQxNiA3LjQ4MDEwMS0zLjM1MzE0ODYgMTEuMjIwMTUxLTQuNTEzODUzOWwtMi44MzcyNzktOC41MTE4Mzg4Yy00LjM4NDg4NyAxLjI4OTY3MjUtOC4xMjQ5MzcgMi43MDgzMTIzLTExLjM0OTExOSA0LjEyNjk1MjF6bS01OC41NTExMzMtMzMuOTE4Mzg3OS01LjgwMzUyNi04Ljg5ODc0MDVjLTMuMjI0MTgxOCAxLjY3NjU3NDMtNi41NzczMzA0IDMuNDgyMTE1OC0xMC4wNTk0NDYzIDUuNTQ1NTkxOWw1LjkzMjQ5MzcgOS4wMjc3MDc4YzMuMzUzMTQ4Ni0yLjA2MzQ3NiA2LjU3NzMyOTYtMy45OTc5ODQ5IDkuOTMwNDc4Ni01LjY3NDU1OTJ6bTI2LjQzODI4NyA1OC4wMzUyNjQ1IDYuMTkwNDI4IDkuMjg1NjQyM2MyLjE5MjQ0NC0zLjIyNDE4MTMgNC43NzE3ODktNi4xOTA0MjgyIDcuNjA5MDY4LTkuMTU2Njc1bC01LjgwMzUyNi04Ljc2OTc3MzNjLTIuOTY2MjQ3IDIuNzA4MzEyMy01LjY3NDU1OSA1LjY3NDU1OTItNy45OTU5NyA4LjY0MDgwNnptLTE4LjcwMDI1MiA0MS41Mjc0NTYzIDEwLjQ0NjM0OCA4LjI1MzkwNGMuNTE1ODY5LTUuMDI5NzIzIDEuNDE4NjQtMTAuMDU5NDQ2IDIuNzA4MzEyLTE1LjA4OTE2OWwtOS4yODU2NDItNy4zNTExMzNjLTEuNjc2NTc0IDQuNzcxNzg4LTIuODM3MjggOS41NDM1NzYtMy44NjkwMTggMTQuMTg2Mzk4em0tNTYuNDg3NjU3Mi02MS4yNTk0NDYyLTkuMTU2Njc1MS03Ljk5NTk2OThjLTMuMzUzMTQ4NiAzLjIyNDE4MTQtNi41NzczMjk5IDYuNDQ4MzYyNy05LjU0MzU3NjggOS42NzI1NDQxbDkuOTMwNDc4NiA4LjUxMTgzODhjMi43MDgzMTI0LTMuNDgyMTE1OSA1LjY3NDU1OTItNi45NjQyMzE3IDguNzY5NzczMy0xMC4xODg0MTMxem0tMzguOTQ4MTEwOCA1Ny42NDgzNjMyLTE0LjgzMTIzNDI4LTUuNDE2NjI1Yy0yLjQ1MDM3NzgzIDUuNTQ1NTkyLTUuMTU4NjkwMTggMTEuOTkzOTU0LTYuNDQ4MzYyNzIgMTUuNDc2MDdsMTQuODMxMjM0MyA1LjQxNjYyNWMxLjY3NjU3NDMtNC4zODQ4ODcgNC4zODQ4ODY2LTEwLjcwNDI4MiA2LjQ0ODM2MjctMTUuNDc2MDd6bTkzLjUwMTI1OSAzNi4zNjg3NjVjLjI1NzkzNSA2LjgzNTI2NS45MDI3NzEgMTIuMzgwODU3IDEuNTQ3NjA3IDE2LjI0OTg3NGwxNS40NzYwNzEgNS41NDU1OTJjLTEuMTYwNzA1LTUuMDI5NzIzLTIuMzIxNDExLTEwLjcwNDI4Mi0zLjA5NTIxNC0xNi43NjU3NDN6Ii8+PC9nPjwvc3ZnPg==;" parent="48" vertex="1">
                    <mxGeometry x="36" y="47" width="151.6" height="53.39" as="geometry"/>
                </mxCell>
                <mxCell id="55" value="" style="shape=image;verticalLabelPosition=bottom;labelBackgroundColor=default;verticalAlign=top;aspect=fixed;imageAspect=0;image=data:image/svg+xml,PHN2ZyB4bWxucz0iaHR0cDovL3d3dy53My5vcmcvMjAwMC9zdmciIHZpZXdCb3g9IjAgMCAzMiAzMiI+PHBhdGggZmlsbD0iIzAxOTYzOSIgZD0ibTE1Ljk0OCAyaC4wNjVhMTAuNDE4IDEwLjQxOCAwIDAgMSAuOTcyLjUyOHE1LjQyOSAzLjEyMiAxMC44NTggNi4yNDZhLjc5Mi43OTIgMCAwIDEgLjQxNC43ODhjLS4wMDggNC4zODkgMCA4Ljc3Ny0uMDA1IDEzLjE2NGEuODEzLjgxMyAwIDAgMSAtLjM1Ni41MDdxLTUuNzczIDMuMzI0LTExLjU0NyA2LjY0NGEuNTg3LjU4NyAwIDAgMSAtLjY1Ny4wMzdxLTUuNzgtMy4zMTQtMTEuNTQ5LTYuNjRhLjcuNyAwIDAgMSAtLjQtLjY2NnEwLTYuNTgyIDAtMTMuMTYzYS42OTMuNjkzIDAgMCAxIC4zODctLjY3cTUuNDIyLTMuMTE4IDEwLjg0NC02LjI0Yy4zMjItLjE4NC42MzgtLjM3OS45NzQtLjUzNSIvPjxwYXRoIGZpbGw9IiNmZmYiIGQ9Im04Ljc2NyAxMC41MzhxMCA1LjQyOSAwIDEwLjg1OWExLjUwOSAxLjUwOSAwIDAgMCAuNDI3IDEuMDg3IDEuNjQ3IDEuNjQ3IDAgMCAwIDIuMDYuMjA2IDEuNTY0IDEuNTY0IDAgMCAwIC42ODUtMS4yOTNjMC0yLjYyLS4wMDUtNS4yNCAwLTcuODZxMy41ODMgNC4yOSA3LjE4MSA4LjU2OGEyLjgzMyAyLjgzMyAwIDAgMCAyLjYuNzgyIDEuNTYxIDEuNTYxIDAgMCAwIDEuMjUxLTEuMzcxcS4wMDgtNS41NDEgMC0xMS4wODFhMS41ODIgMS41ODIgMCAwIDAgLTMuMTUyIDBjMCAyLjY2Mi0uMDE2IDUuMzIxIDAgNy45ODItMi4zNDYtMi43NjYtNC42NjMtNS41NTYtNy04LjMzMmEyLjgxNyAyLjgxNyAwIDAgMCAtMi42NDktMS4wNTIgMS41NzkgMS41NzkgMCAwIDAgLTEuNDAzIDEuNTA1eiIvPjwvc3ZnPg==;" parent="48" vertex="1">
                    <mxGeometry x="179" y="130" width="42.61" height="42.61" as="geometry"/>
                </mxCell>
                <mxCell id="101" value="&lt;font style=&quot;font-size: 13px;&quot;&gt;Nginx&lt;/font&gt;" style="text;html=1;align=center;verticalAlign=middle;resizable=0;points=[];autosize=1;strokeColor=none;fillColor=none;fontSize=9;fontColor=#000000;" parent="48" vertex="1">
                    <mxGeometry x="179.68" y="165" width="51" height="28" as="geometry"/>
                </mxCell>
                <mxCell id="114" value="&lt;font color=&quot;#cc0101&quot; style=&quot;font-size: 13px;&quot;&gt;Backend(API)&lt;/font&gt;" style="text;html=1;align=center;verticalAlign=middle;resizable=0;points=[];autosize=1;strokeColor=none;fillColor=none;fontSize=9;fontColor=#000000;" parent="48" vertex="1">
                    <mxGeometry y="168" width="98" height="28" as="geometry"/>
                </mxCell>
                <mxCell id="49" value="" style="points=[[0,0,0],[0.25,0,0],[0.5,0,0],[0.75,0,0],[1,0,0],[0,1,0],[0.25,1,0],[0.5,1,0],[0.75,1,0],[1,1,0],[0,0.25,0],[0,0.5,0],[0,0.75,0],[1,0.25,0],[1,0.5,0],[1,0.75,0]];outlineConnect=0;fontColor=#232F3E;gradientColor=#F78E04;gradientDirection=north;fillColor=#D05C17;strokeColor=#ffffff;dashed=0;verticalLabelPosition=bottom;verticalAlign=top;align=center;html=1;fontSize=12;fontStyle=0;aspect=fixed;shape=mxgraph.aws4.resourceIcon;resIcon=mxgraph.aws4.fargate;shadow=0;" parent="48" vertex="1">
                    <mxGeometry width="47" height="47" as="geometry"/>
                </mxCell>
                <mxCell id="44" value="&lt;font color=&quot;#d86613&quot; style=&quot;font-size: 13px;&quot;&gt;&amp;nbsp; &amp;nbsp; &amp;nbsp; ECS Fargate&lt;/font&gt;" style="points=[[0,0],[0.25,0],[0.5,0],[0.75,0],[1,0],[1,0.25],[1,0.5],[1,0.75],[1,1],[0.75,1],[0.5,1],[0.25,1],[0,1],[0,0.75],[0,0.5],[0,0.25]];outlineConnect=0;html=1;whiteSpace=wrap;fontSize=12;fontStyle=0;container=1;pointerEvents=0;collapsible=0;recursiveResize=0;shape=mxgraph.aws4.group;grIcon=mxgraph.aws4.group_ec2_instance_contents;strokeColor=#b46504;fillColor=#FFE6CC;verticalAlign=top;align=left;spacingLeft=30;dashed=0;shadow=0;" parent="43" vertex="1">
                    <mxGeometry x="55" y="47" width="231.8" height="198.5" as="geometry"/>
                </mxCell>
                <mxCell id="113" value="&lt;font color=&quot;#2f495e&quot; style=&quot;font-size: 13px;&quot;&gt;Frontend&lt;/font&gt;&lt;font color=&quot;#2f495e&quot; style=&quot;font-size: 13px;&quot;&gt;(&lt;/font&gt;&lt;font color=&quot;#04c58e&quot; style=&quot;font-size: 13px;&quot;&gt;SPA&lt;/font&gt;&lt;font color=&quot;#2f495e&quot; style=&quot;font-size: 13px;&quot;&gt;)&lt;/font&gt;" style="text;html=1;align=center;verticalAlign=middle;resizable=0;points=[];autosize=1;strokeColor=none;fillColor=none;fontSize=9;fontColor=#000000;" parent="44" vertex="1">
                    <mxGeometry x="1" y="168.99999999999997" width="104" height="28" as="geometry"/>
                </mxCell>
                <mxCell id="46" value="" style="points=[[0,0,0],[0.25,0,0],[0.5,0,0],[0.75,0,0],[1,0,0],[0,1,0],[0.25,1,0],[0.5,1,0],[0.75,1,0],[1,1,0],[0,0.25,0],[0,0.5,0],[0,0.75,0],[1,0.25,0],[1,0.5,0],[1,0.75,0]];outlineConnect=0;fontColor=#232F3E;gradientColor=#F78E04;gradientDirection=north;fillColor=#D05C17;strokeColor=#ffffff;dashed=0;verticalLabelPosition=bottom;verticalAlign=top;align=center;html=1;fontSize=12;fontStyle=0;aspect=fixed;shape=mxgraph.aws4.resourceIcon;resIcon=mxgraph.aws4.fargate;shadow=0;" parent="44" vertex="1">
                    <mxGeometry x="-2" width="48" height="48" as="geometry"/>
                </mxCell>
                <mxCell id="63" value="" style="shape=image;verticalLabelPosition=bottom;labelBackgroundColor=default;verticalAlign=top;aspect=fixed;imageAspect=0;image=data:image/svg+xml,PHN2ZyB4bWxucz0iaHR0cDovL3d3dy53My5vcmcvMjAwMC9zdmciIHdpZHRoPSIyNTYiIHZpZXdCb3g9IjAgMCAyNTYgMTkxIiBoZWlnaHQ9IjE5MSI+PGcgdHJhbnNmb3JtPSJ0cmFuc2xhdGUoLjAwMDE3MykiIGZpbGwtcnVsZT0iZXZlbm9kZCIgZmlsbD0ibm9uZSI+PHBhdGggZmlsbD0iIzAxYzU4ZSIgZD0ibTc3Ljg5MTE3OTEgMTgzLjYxNDg2NGMtLjE4OTkyNC0uMzM1ODY0LS4zNTkwNzA1LS42ODMwNi0uNTA2NDg3MS0xLjAzOTYzMi0xLjAyMjQ3NDctMi4zNjU0Ny0xLjMzNzI5NTItNC45NzY2MjctLjkwNjM0NS03LjUxNzMzM2gtNjAuNDg1MjA5Nmw4OS44ODgxMTI2LTE1OC4xODM4ODUgMjkuNTA5NTMyIDUxLjg3NDkzMDYgOC41NTY5NjQtMTUuMTQxMjk1LTI1LjcyNDIwOC00NS4zMTcyNTcyOGMtLjcxOTc0NS0xLjMwNjIwMzI2LTUuMDY0ODctOC4yOTAzOTIzMi0xMi41NTU1NDUtOC4yOTAzOTIzMi0zLjM4NTQ2NiAwLTguMjM3MDc4NiAxLjQ2NjE0NjU2LTEyLjE4MjM0NiA4LjM5NzAyMTE5bC05MS4wNjEwMjk1MSAxNjAuMTAzMjAzODFjLS43NzMwNTkxMSAxLjM4NjE3NS00LjUzMTcyNTcxIDguNjYzNTk0LS43OTk3MTYzMyAxNS4xMTQ2MzkgMS43MDYwNjE1MyAyLjkzMjI5MiA1LjMzMTQ0MjA0IDYuNDI0Mzg3IDEzLjMyODYwNTE0IDYuNDI0Mzg3aDc2LjI2NjI3ODJjLTcuOTQzODQ4NyAwLTExLjYyMjU0MzktMy40Mzg3OC0xMy4zMjg2MDU0LTYuNDI0Mzg3eiIvPjxwYXRoIGZpbGw9IiMxMDg3NzUiIGQ9Im0yNTMuMjQyMzA3IDE2OC41MDAyMjUtNzQuODI2Nzg5LTEzMS44MTk5MDM5Yy0uNzczMDU4LTEuMzg2MTc0OS01LjA5MTUyNi04LjM5NzAyMTItMTIuNjA4ODYtOC4zOTcwMjEyLTMuMzg1NDY1IDAtOC4yMzcwNzggMS40Mzk0ODk0LTEyLjE4MjM0NCA4LjM3MDM2NGwtOS42NzY1NjggMTYuOTUzOTg1NyA4LjYxMDI3OSAxNS4xNDEyOTUgMTMuMzI4NjA1LTIzLjU5MTYzMDYgNzQuMDI3MDcyIDEyOS45MDA1ODVoLTI4LjE1MDAxNGMuMzYwMjEgMi4xNDc0NDEuMTU4MTY1IDQuMzUxNTY2LS41ODY0NTggNi4zOTc3MzEtLjE1NjgyMS40NTE3NDktLjM1MzA2My44ODg4MzMtLjU4NjQ1OSAxLjMwNjIwMmwtLjIzOTkxNS40Nzk4M2MtMy43ODUzMjMgNi40NTEwNDUtMTEuOTY5MDg3IDYuNzk3NTg5LTEzLjU2ODUxOSA2Ljc5NzU4OWg0NC4wMzc3MWMxLjYyNjA5IDAgOS43ODMxOTYtLjM0NjU0NCAxMy41Njg1MjEtNi43OTc1ODkgMS42Nzk0MDQtMi45MzIyOTMgMi44Nzg5NzgtNy44NjM4NzctMS4xNDYyNjEtMTQuNzQxNDM3eiIvPjxwYXRoIGZpbGw9IiMyZjQ5NWUiIGQ9Im0yMTAuMzUwODU2IDE4My4yNDE2NjIuMjM5OTE1LS40Nzk4M2MuMjMzMzk2LS40MTczNjkuNDI5NjM4LS44NTQ0NTMuNTg2NDU5LTEuMzA2MjAyLjc0NDYyMy0yLjA0NjE2NS45NDY2NjgtNC4yNTAyOS41ODY0NTgtNi4zOTc3MzEtLjQxNDg3OS0yLjMxNjAyNy0xLjI0NTc3NS00LjUzNzc3MS0yLjQ1MjQ2Mi02LjU1NzY3NGwtNTYuNjk5ODg3LTk5Ljc1MTI4MDQtOC42NjM1OTMtMTUuMTQxMjk1LTguNjEwMjc5IDE1LjE0MTI5NS01Ni42NzMyMjg3IDk5Ljc1MTI4MDRjLTEuMTAwMzc3MSAyLjA0Mzg5OC0xLjgzOTg1MzggNC4yNjIzMjktMi4xODU4OTEzIDYuNTU3Njc0LS40NTYxMTU5IDIuNTMzMDA3LS4xNjkxMDI5IDUuMTQzODk4LjgyNjM3MzkgNy41MTczMzMuMTQ3NDE1OS4zNTY1NzMuMzE2NTYyNS43MDM3NjguNTA2NDg3IDEuMDM5NjMyIDEuNzA2MDYxNSAyLjkzMjI5MiA1LjMzMTQ0MTUgNi40MjQzODcgMTMuMzI4NjA0OCA2LjQyNDM4N2gxMDUuNTYyNTUyM2MxLjY3OTQwNCAwIDkuODYzMTY4LS4zNDY1NDQgMTMuNjQ4NDkxLTYuNzk3NTg5em0tNjYuNDAzMTEtOTkuMzUxNDIyIDUxLjgyMTYxNiA5MS4xNjc2NTloLTEwMy42MTY1NzUyeiIvPjwvZz48L3N2Zz4=;" parent="44" vertex="1">
                    <mxGeometry x="70.16" y="39" width="91.48" height="68.24" as="geometry"/>
                </mxCell>
                <mxCell id="97" value="" style="shape=image;verticalLabelPosition=bottom;labelBackgroundColor=default;verticalAlign=top;aspect=fixed;imageAspect=0;image=data:image/svg+xml,PHN2ZyB4bWxucz0iaHR0cDovL3d3dy53My5vcmcvMjAwMC9zdmciIHdpZHRoPSI1MTIiIHZpZXdCb3g9IjAgMCA1MTIgODgiIGhlaWdodD0iODgiPjxnIHRyYW5zZm9ybT0idHJhbnNsYXRlKC4wMDAxNzMpIiBmaWxsLXJ1bGU9ImV2ZW5vZGQiIGZpbGw9Im5vbmUiPjxwYXRoIGZpbGw9IiMyZjQ5NWUiIGQ9Im0yMDMuNjczODIgMjUuODI0OTQ1MmMuNjk4Nzg2LjcyODQ5NTIgMS4wNzM5MDggMS43MDgyMjYzIDEuMDQwMzQyIDIuNzE3MTI2OXY1Mi4yMzczNzczYy4wMjkxMjYgMS4xMTg0NjY3LS4zODk0MjMgMi4yMDIyODc4LTEuMTYyNzM1IDMuMDEwODcwMS0uNzczMTM1LjgxMTAyNjktMS44NTQxMTYgMS4yNTU4NzUxLTIuOTc0MTUyIDEuMjIzOTMxMS0uNjI3NzUxLjAwMTAzOTYtMS4yNTE2NDMtLjA5ODEyMjItMS44NDgxMzYtLjI5Mzc0MzMtLjU0NjI1Ny0uMTY4Mzc0Mi0xLjAzNjgyMy0uNDgxMzIwOC0xLjQxOTc2LS45MDU3MDkxbC0zMy44NDE2OTQtNDQuMDYxNTE3OHY0MS40NzkwMjM1Yy4wMzA4NSAxLjAxMjE3NjgtLjM1NzY4OSAxLjk5MjE1ODEtMS4wNzM3MzkgMi43MDgyMDc4LS43MTYwNDkuNzE2MDQ5NC0xLjY5NjAzMSAxLjEwNDU4ODMtMi43MDgyMDggMS4wNzM3Mzg5LTEuMDAyMzguMDM4NDIzNS0xLjk3MzM2NS0uMzUzNTM0Mi0yLjY2ODE2OS0xLjA3NzA1OTItLjY5MTI0Mi0uNzI3NDgwMi0xLjA2MTYyMi0xLjcwMTkzMjgtMS4wMjgxMDItMi43MDQ4ODc1di01Mi4zNDc1MzExYy0uMDI1Mzk1LTEuMTE1MjQ3Ny40MTg2NzktMi4xODk5MDc2IDEuMjIzOTMxLTIuOTYxOTEzMi43NTM2MjctLjc3MzI0MTYgMS43OTY5NzItMS4xOTUwMTk0IDIuODc2MjM4LTEuMTYyNzM0NS42NzkyNzEtLjAwMzI3ODYgMS4zNTI2OTYuMTI1NTg2OCAxLjk4Mjc2OC4zNzk0MTg3LjU3MzMwOC4yMjE4ODcxIDEuMDc2Mzc2LjU5MzkwMzcgMS40NTY0NzggMS4wNzcwNTkzbDMzLjY5NDgyMiA0NC4xNTk0MzIydi00MS44MzM5NjMyYy0uMDMwODUtMS4wMTIxNzcuMzU3Njg5LTEuOTkyMTU4NCAxLjA3MzczOS0yLjcwODIwNzkuNzE2MDQ5LS43MTYwNDk1IDEuNjk2MDMxLTEuMTA0NTg4NSAyLjcwODIwNy0xLjA3MzczOTEuOTk5NzA3LS4wMzY5MjgyIDEuOTY4NTguMzQ5NzMyIDIuNjY4MTcgMS4wNjQ4MjAxem02OS41MTkyODQgMGMuNzMxOTM3LjgxMzcxMTcgMS4xMTgyNDkgMS44ODA0NjA3IDEuMDc3MDU5IDIuOTc0MTUyNHYzMy4wNDYxMzg1Yy4wNzAwOSA0LjI3MTMxNDctLjk2NzIwOSA4LjQ4Nzk3OC0zLjAxMDg3IDEyLjIzOTMxMDItMS45MzU0OTMgMy41MzkxNzk3LTQuODExNTQ1IDYuNDc0NTMxOS04LjMxMDQ5MiA4LjQ4MTg0MjEtMy42MjU2MTQgMi4wODAxOTA5LTcuNzQxMzQzIDMuMTUzNDkyMy0xMS45MjEwODkgMy4xMDg3ODUtNC4yMTcxOTkuMDY2NjY0Ny04LjM3NjgxNi0uOTg0ODUyNy0xMi4wNTU3Mi0zLjA0NzU4ODItMy41MTQ4NC0xLjk5ODg3MTktNi40MDQ4MjgtNC45MzU0NzI2LTguMzQ3MjEtOC40ODE4NDIyLTIuMDQzNjYxLTMuNzUxMzMyMi0zLjA4MDk2LTcuOTY3OTk1NS0zLjAxMDg3LTEyLjIzOTMxMDV2LTMzLjA0NjEzODRjLS4wMzE5NDQtMS4xMjAwMzY0LjQxMjkwNC0yLjIwMTAxNzQgMS4yMjM5MzEtMi45NzQxNTI0LjgyNTY4MS0uODA3NjU0IDEuOTQxOC0xLjI0ODgwNzggMy4wOTY1NDUtMS4yMjM5MzExIDEuMDg4NjkxLjAwMDcyOTEgMi4xMzA2OTUuNDQyMjU2MSAyLjg4ODQ3NyAxLjIyMzkzMTEuODAyMDk5Ljc1ODkzMDMgMS4yNDY1NTkgMS44MjExOTEyIDEuMjIzOTMxIDIuOTI1MTk1MnYzMy4wNDYxMzgyYy0uMDQ0MjY5IDIuODIxMjk1OC42NzAxMDEgNS42MDI2ODk4IDIuMDY4NDQ0IDguMDUzNDY2MyAyLjYzNzExOCA0LjY0ODc4NjkgNy41Njc3OTMgNy41MjMwNjY3IDEyLjkxMjQ3MiA3LjUyNzE3NjEgMi42ODMyMTMuMDE5MDg3OCA1LjMyNDY4OC0uNjY0NDg4NiA3LjY2MTgwOS0xLjk4Mjc2ODMgMi4zNTc3ODEtMS4zMDI5NzQ2IDQuMzE5ODgyLTMuMjE4NTYwMSA1LjY3OTA0LTUuNTQ0NDA3OCAxLjQyMDgzNS0yLjQ0MzE4IDIuMTQ4NjU1LTUuMjI3NTEzNSAyLjEwNTE2MS04LjA1MzQ2NjN2LTMzLjA0NjEzODJjLS4wMzk3NjEtMS4wODQ4NDE5LjMyNjg3MS0yLjE0NTQ1NjQgMS4wMjgxMDMtMi45NzQxNTI1LjcyMjk5NS0uODA5Mzc1MiAxLjc2NzAwNi0xLjI1NzQ0ODggMi44NTE3NTktMS4yMjM5MzEgMS4wNzcwMDUtLjAyNDc0NyAyLjExMjE5Mi40MTY5OTIzIDIuODM5NTIgMS4yMTE2OTE4em02Ni4yNTEzODYgNTIuOTk2MjE0MmMuNTE2MzIyLjcxMDQyMzEuNzg3MDE3IDEuNTY5Nzc3NS43NzEwNzcgMi40NDc4NjIyLjA0NTI4NSAxLjEwODE5MjUtLjQwMjk0MyAyLjE3OTQ1OTUtMS4yMjM5MjkgMi45MjUxOTU0LS43NTc0OC43MTU5OTQzLTEuNzYwNDg3IDEuMTE0NTcwMS0yLjgwMjgwMyAxLjExMzc3NzMtMS4zMzk3NTQuMDUwNzg5Ny0yLjYwOTY5MS0uNTk4MDg0MS0zLjM1MzU3My0xLjcxMzUwMzdsLTE2LjczMTEzNy0yMi4zMzY3NDE1LTE2LjM1MTcxNyAyMi4zMDAwMjM1Yy0uNzM2NjQ5IDEuMTMzNzMyNC0yLjAwMTYgMS44MTIzNzQyLTMuMzUzNTcyIDEuNzk5MTc4Ny0uOTg4NjM2LjAyMTg1NTUtMS45NDE4NTctLjM2ODMwMDEtMi42MzE0NTEtMS4wNzcwNTkyLS42ODQxNDEtLjYzMDQzMjItMS4wNzQ0NzEtMS41MTc1NDczLTEuMDc3MDYtMi40NDc4NjIyLjAxODkxMy0xLjAzNjMyMDkuMzg1Mjc1LTIuMDM2MjczMSAxLjA0MDM0Mi0yLjgzOTUxOTlsMTcuNjQ5MDg1LTI0LjAyNTc2NjYtMTcuNzM0NzYtMjMuODQyMTc2OGMtLjU1Mzc1Ni0uNjk2NjQ4OS0uODU5NTMyLTEuNTU3OTg4MS0uODY4OTkxLTIuNDQ3ODYyMS0uMDIyNjI4LTEuMTA0MDA0LjQyMTgzMi0yLjE2NjI2NSAxLjIyMzkzMS0yLjkyNTE5NTIuNzU3NzgyLS43ODE2NzUxIDEuNzk5Nzg1LTEuMjIzMjAyMSAyLjg4ODQ3Ny0xLjIyMzkzMTEuNjQxNjc0LjAwMzI3MjIgMS4yNzQwMDcuMTU0MDI2OSAxLjg0ODEzNi40NDA2MTUyLjYwNjY3OS4yODc2MzEzIDEuMTI2MTY5LjczMTA5ODEgMS41MDU0MzUgMS4yODUxMjc2bDE2LjUzNTMwOCAyMi4yMTQzNDg2IDE2LjM3NjE5OS0yMS45OTQwNDFjLjcyMjg1MS0xLjExODk3NzYgMS45Mzc3MzUtMS44MjQyNDY3IDMuMjY3ODk1LTEuODk3MDkzMSAxLjAzNzk5NS4wMDU1NzI5IDIuMDI1MTM0LjQ1MDIzMDQgMi43MTcxMjYgMS4yMjM5MzEuNzUyMDIzLjY3MTg2MjIgMS4xOTQ2MjEgMS42MjM0NDU1IDEuMjIzOTMxIDIuNjMxNDUxOC0uMDI4OTUxLjg4NDI5MTYtLjMyNzkzMSAxLjczODUyNC0uODU2NzUxIDIuNDQ3ODYyMWwtMTcuOTY3MzA4IDIzLjkxNTYxMjh6bTYyLjExNDUwNC01Mi45OTYyMTQyYy44MDk2MTQuNzM4MzE2IDEuMjU2NjIyIDEuNzkzMjUxMSAxLjIyMzkyOCAyLjg4ODQ3NzIuMDI5ODc0IDEuMDgwNTIxMi0uNDE3ODggMi4xMTkzMTAyLTEuMjIzOTI4IDIuODM5NTIwMi0uODI4Njk3LjcwMTIzMTUtMS44ODkzMTEgMS4wNjc4NjM2LTIuOTc0MTUzIDEuMDI4MTAxOWgtMTUuMzIzNjE3djQ4LjMwODU1ODdjLjAyMTA5OSAxLjEwMzcxMjYtLjQyMzExMyAyLjE2NTM4MDktMS4yMjM5MzEgMi45MjUxOTUtMS43OTIxMTggMS41OTkxODUxLTQuNDk4ODkyIDEuNTk5MTg1MS02LjI5MTAwNiAwLS43OTcwMjktLjc2MjQyMjktMS4yNDA1MTUtMS44MjIzNDk0LTEuMjIzOTMyLTIuOTI1MTk1di00OC4zMDg1NTg3aC0xNS4yODY4OThjLTEuMDg3ODM4LjA0MTMyMzctMi4xNDkzOTYtLjM0MDMxMTQtMi45NjE5MTMtMS4wNjQ4MTk5LS43ODcwNDgtLjc0OTM3NzktMS4yMTExLTEuODAyODExLTEuMTYyNzM2LTIuODg4NDc3NC0uMDM0NjQ4LTEuMDU4MjEwNi4zODkxODMtMi4wNzk4NzEgMS4xNjI3MzYtMi44MDI4MDIuODEyNTE3LS43MjQ1MDg4IDEuODc0MDc1LTEuMTA2MTQzOCAyLjk2MTkxMy0xLjA2NDgyMDFoMzkuMzQ5Mzg0YzEuMDkxMjI1LS4wMzk0MTg1IDIuMTU1OTExLjM0MTc2NTQgMi45NzQxNTMgMS4wNjQ4MjAxeiIvPjxwYXRoIGZpbGw9IiMwMWM1OGUiIGQ9Im00MjAuNDA3NTI5IDgzLjQ3MjA5NzVjLTIuNzg2ODYtMS41NzgzMjUxLTUuMTA1NDI0LTMuODY3MzI4NS02LjcxOTM4MS02LjYzMzcwNjQtLjQ3ODQ5My0uNjg0MTA3My0uNzUwMzgxLTEuNDkxMjc3NS0uNzgzMzE0LTIuMzI1NDY4Ny0uMDAwNjA3LTEuMDc5NTYxLjQ3MzkwNy0yLjEwNDY4NjIgMS4yOTczNjctMi44MDI4MDIyLjcwMDgxNy0uNzMzMjMxOCAxLjY1NTI2Mi0xLjE3MTA1MDcgMi42NjgxNy0xLjIyMzkzMTEgMS41Mzc2ODQuMTQzNjY0MSAyLjk0NDg2MS45MjQ5MzY1IDMuODc5ODU5IDIuMTU0MTE4OCAxLjkxMjk1OSAzLjE0Nzg2MDMgNS4zNDk0NzQgNS4wNDc3MjEyIDkuMDMyNjExIDQuOTkzNjM4NSAyLjk4OTUwMi4wNjk3MTEgNS44Nzg4OC0xLjA3ODk3MTIgOC4wMDQ1MTEtMy4xODIyMjA3IDIuMTQ2MTc0LTIuMDMzNjcwNCAzLjMzNjgzMy00Ljg3NzAzNiAzLjI4MDEzNS03LjgzMzE1ODh2LTM3LjczMzc5NDFjLS4wMTMyMTUtMS4xMTQ3MDc3LjQ1NTE5Ni0yLjE4MDkwNyAxLjI4NTEyNi0yLjkyNTE5NTMuODAyMzk1LS43ODk5MDk1IDEuODg0OTI0LTEuMjI5OTYxNCAzLjAxMDg3Mi0xLjIyMzkzMSAxLjEzNzM2OS0uMDU1NTA3MiAyLjI0NjM0Ny4zNjU5MDQgMy4wNTk4MjcgMS4xNjI3MzQ1Ljc3Nzc3NC43ODU4MDc3IDEuMTk4MjI0IDEuODU2ODQ5NiAxLjE2MjczNiAyLjk2MTkxMzF2MzcuODE5NDY5NmMuMDMyMTg0IDMuMzg5ODc5OC0uODYwNjc5IDYuNzI0MzU5OC0yLjU4MjQ5NiA5LjY0NDU3NjUtMS43MDYzMjMgMi45MTAyMTkyLTQuMTU2NDQ2IDUuMzEzODc0Ny03LjA5ODgwMSA2Ljk2NDE2NzctMy4wODQ0MDcgMS43NDY2Mjc2LTYuNTc3NjE0IDIuNjQyMTA1Mi0xMC4xMjE5MSAyLjU5NDczMzctMy4yODI3NjUuMDM0Nzc2OC02LjUxNjYzNS0uNzk2OTEwNC05LjM3NTMxMi0yLjQxMTE0NDF6bTU5LjE4OTMwNy42MzY0NDQxYy0zLjQxMTAxNy0xLjI5NDkxNTgtNi41NDAyNDMtMy4yMzU2MTczLTkuMjE2Mi01LjcxNTc1OC0xLjEwMzQwMS0uODQ2NjEzNy0xLjc2NDc0OS0yLjE0NjgxMzQtMS43OTkxOC0zLjUzNzE2MDguMDEzMTY4LTEuMDU3NTY3Ny40NTQ4MjUtMi4wNjQ1NDY0IDEuMjIzOTMyLTIuNzkwNTYyNS43MzI1MS0uNzg4ODAzMiAxLjc2MzA5My0xLjIzMzAyMDEgMi44Mzk1MTktMS4yMjM5MzExLjkwNjgwOC0uMDEyNDQ3NyAxLjc4MzUyMi4zMjUwODggMi40NDc4NjMuOTQyNDI2NyAyLjA2NzQ0OCAxLjk3MzgwODcgNC40NzE2NjEgMy41NjE0MjAxIDcuMDk4ODAxIDQuNjg3NjU2MSAyLjY0MjQ4IDEuMDUwNzA0MiA1LjQ2NzIgMS41NjY1NTk1IDguMzEwNDkgMS41MTc2NzQ1IDMuMjM4MjkyLjEwMjQ5NDkgNi40MzI1MDMtLjc3MTc1NDggOS4xNjcyNDQtMi41MDkwNTg2IDIuMjc1NTM2LTEuMjc4NjA2MSAzLjcwMTM3My0zLjY2ODk4MjggMy43NDUyMjktNi4yNzg3NjYzLjA0MjY5OS0yLjgwMzY4NzMtMS4zNzU5NjUtNS40Mjc3NTYyLTMuNzQ1MjI5LTYuOTI3NDQ5Ny0zLjQzNzc2MS0yLjAxODc3ODgtNy4yMTAyOTItMy40MDM0MjI0LTExLjEzNzc3Mi00LjA4NzkyOTctNS45MjM4MjYtMS4yMjM5MzExLTEwLjQ2NDYxMS0zLjE5NDQ2MDEtMTMuNjU5MDcxLTUuOTQ4MzA0OS0zLjE5NDQ2LTIuNzUzODQ0OS00Ljc3MzMzMi02LjU3MjUxLTQuNzczMzMyLTExLjQ0Mzc1NTMtLjA2NzQ2NS0zLjE5OTExOTYuODc0Njg0LTYuMzM4MTgxNyAyLjY5MjY1LTguOTcxNDE0OCAxLjg0ODY2Ny0yLjYxMzg4MTUgNC4zOTI2NjktNC42NTc1NjA5IDcuMzQzNTg1LTUuODk5MzQ3NiAzLjM3NTExOC0xLjQyMzgwMzYgNy4wMTAwMjEtMi4xMjgyNzQgMTAuNjcyNjc4LTIuMDY4NDQzNSAzLjQzMzAzMS0uMDIxODE1NyA2Ljg0Mjk3NC41NjIzOTA4IDEwLjA3Mjk1NCAxLjcyNTc0MjggMi44NDg5MzkuOTYwODU4OSA1LjQ2MDczOSAyLjUxNzA5MTMgNy42NjE4MDcgNC41NjUyNjI4IDEuMTc1NTY4Ljg2Njg3NCAxLjkwMjY3NCAyLjIxMzM2NjEgMS45ODI3NjggMy42NzE3OTMyLS4wMDAwNzIgMS4wMzcyNDQtLjQxOTQxMiAyLjAzMDQxNjctMS4xNjI3MzMgMi43NTM4NDQ5LS43MTE4MTMuNzk2MTcyNy0xLjczNDk5NyAxLjI0Mjk3ODUtMi44MDI4MDMgMS4yMjM5MzEtLjcyMTg0Ny4wMjc3MzExLTEuNDI2OTI5LS4yMjE4OTQ3LTEuOTcwNTI5LS42OTc2NDA4LTEuNzg1NjQ5LTEuNjc0ODk1My0zLjg5ODMxNC0yLjk2MjQ5NjktNi4yMDUzMjgtMy43ODE5NDY3LTIuMzg5NTU0LS45NjMzMjM2LTQuOTM4NjItMS40Njk4MTU0LTcuNTE0OTM3LTEuNDkzMTk2MS0zLjIyNjc5OC0uMTY1OTM1LTYuNDI2NzM4LjY2Mjg4NzYtOS4xNjcyNDUgMi4zNzQ0MjY1LTIuMTI4MTMzIDEuNDEwMTU4Ni0zLjQwNzc2NSAzLjc5MzE0MjQtMy40MDc3NjUgNi4zNDYwODIyIDAgMi41NTI5NCAxLjI3OTYzMiA0LjkzNTkyMzggMy40MDc3NjUgNi4zNDYwODI1IDMuMTM1MDU5IDEuODI4MTc1NiA2LjU1NzYxIDMuMTExMTE0OCAxMC4xMjE5MSAzLjc5NDE4NjQgMy43ODUyOTYuNzQ0OTU5NyA3LjQ3ODY2OCAxLjg5ODExMjkgMTEuMDE1Mzc5IDMuNDM5MjQ2MyAyLjY2OTExNSAxLjE4MDI0OTggNC45NTEzNSAzLjA4OTE4MzUgNi41ODQ3NDkgNS41MDc2ODk3IDEuNjU0ODI3IDIuNzgwMTMyIDIuNDU5MDE2IDUuOTg0MTIxOSAyLjMxMzIyOSA5LjIxNjIwMDcuMDQ3ODMyIDMuMTc3MTE5LS45MzA4NSA2LjI4NDg1OTQtMi43OTA1NiA4Ljg2MTI2MS0xLjk1NjY2NSAyLjY1NjczMjktNC41ODk3NDQgNC43NDAzNzI4LTcuNjI1MDkyIDYuMDMzOTgtMy4zMzY1MyAxLjQ2MDAwNDgtNi45NDUyNDQgMi4xOTQyNjM1LTEwLjU4NzAwNCAyLjE1NDExODUtMy43ODkyNTIuMDcwNTMzNi03LjU2MDc2Ny0uNTM0NTY2Ni0xMS4xMzc3NzItMS43ODY5Mzk0eiIvPjxwYXRoIGZpbGw9IiMwMWM1OGUiIGQ9Im0zNS43NjI3MTk0IDg0LjMwNDM3MDhjLS4wODcyMDExLS4xNTQyMDc0LS4xNjQ4NjI1LS4zMTM2MTc3LS4yMzI1NDY5LS40NzczMzMyLS40Njk0NTYtMS4wODYwNzQ5LS42MTQwMDE3LTIuMjg0OTUzNi0uNDE2MTM2NS0zLjQ1MTQ4NTdoLTI3Ljc3MDk5NTQ2bDQxLjI3MDk1NTA2LTcyLjYyODA2ODM1IDEzLjU0ODkxNjggMjMuODE3Njk4MDUgMy45Mjg4MTg1LTYuOTUxOTI4Mi0xMS44MTA5MzQ3LTIwLjgwNjgyNzg1Yy0uMzMwNDYxNC0uNTk5NzI2Mi0yLjMyNTQ2OS0zLjgwNjQyNTU1LTUuNzY0NzE1LTMuODA2NDI1NTUtMS41NTQzOTI1IDAtMy43ODE5NDcxLjY3MzE2MjA4LTUuNTkzMzY1MiAzLjg1NTM4MjgxbC00MS44MDk0ODQ0OSA3My41MDkyOTg4OWMtLjM1NDk0MDAxLjYzNjQ0NDEtMi4wODA2ODI3OCAzLjk3Nzc3Ni0uMzY3MTc5MzIgNi45Mzk2ODkxLjc4MzMxNTkgMS4zNDYzMjM5IDIuNDQ3ODYyMSAyLjk0OTY3MzcgNi4xMTk2NTUyNiAyLjk0OTY3MzdoMzUuMDE2NjY3MzVjLTMuNjQ3MzE0NSAwLTUuMzM2MzM5NS0xLjU3ODg3MTEtNi4xMTk2NTU0LTIuOTQ5NjczN3oiLz48cGF0aCBmaWxsPSIjMTA4Nzc1IiBkPSJtMTE2LjI3MjkwNCA3Ny4zNjQ2ODE3LTM0LjM1NTc0NDctNjAuNTIzMzkwNWMtLjM1NDkzOTgtLjYzNjQ0NDEtMi4zMzc3MDgxLTMuODU1MzgyOC01Ljc4OTE5MzctMy44NTUzODI4LTEuNTU0MzkyNSAwLTMuNzgxOTQ3MS42NjA5MjI4LTUuNTkzMzY0OSAzLjg0MzE0MzVsLTQuNDQyODY5OCA3Ljc4NDIwMTUgMy45NTMyOTczIDYuOTUxOTI4MiA2LjExOTY1NTQtMTAuODMxNzg5NiAzMy45ODg1NjU0IDU5LjY0MjE1OTloLTEyLjkyNDcxMjNjLjE2NTM4NTUuOTg1OTY5Ni4wNzI2MTk0IDEuOTk3OTY0OC0uMjY5MjY0NyAyLjkzNzQzNDctLjA3MjAwMjQuMjA3NDE0OS0uMTYyMTA0NC40MDgwOTY1LS4yNjkyNjQ5LjU5OTcyNjFsLS4xMTAxNTM4LjIyMDMwNzZjLTEuNzM3OTgyIDIuOTYxOTEzMS01LjQ5NTQ1MDQgMy4xMjEwMjQyLTYuMjI5ODA4OSAzLjEyMTAyNDJoMjAuMjE5MzQwNmMuNzQ2NTk4IDAgNC40OTE4MjctLjE1OTExMTEgNi4yMjk4MDktMy4xMjEwMjQyLjc3MTA3Ny0xLjM0NjMyNDMgMS4zMjE4NDYtMy42MTA1OTY2LS41MjYyOS02Ljc2ODMzODZ6Ii8+PHBhdGggZmlsbD0iIzJmNDk1ZSIgZD0ibTk2LjU3OTg1MzMgODQuMTMzMDIwMy4xMTAxNTM4LS4yMjAzMDc2Yy4xMDcxNjA1LS4xOTE2Mjk2LjE5NzI2MjUtLjM5MjMxMTIuMjY5MjY0OS0uNTk5NzI2MS4zNDE4ODQxLS45Mzk0Njk5LjQzNDY1MDItMS45NTE0NjUxLjI2OTI2NDctMi45Mzc0MzQ3LS4xOTA0ODY0LTEuMDYzMzczNC0uNTcxOTgxNC0yLjA4MzQ1OC0xLjEyNjAxNjMtMy4wMTA4NzAybC0yNi4wMzMwMTM1LTQ1Ljc5OTUwMDEtMy45Nzc3NzYtNi45NTE5MjgyLTMuOTUzMjk3MiA2Ljk1MTkyODItMjYuMDIwNzc0MiA0NS43OTk1MDAxYy0uNTA1MjIzOS45Mzg0MjkyLS44NDQ3NDQ5IDEuOTU2OTkyNy0xLjAwMzYyMzUgMy4wMTA4NzAyLS4yMDk0MTk3IDEuMTYyOTk3NS0uMDc3NjQxNCAyLjM2MTc1NC4zNzk0MTg4IDMuNDUxNDg1Ny4wNjc2ODQxLjE2MzcxNTYuMTQ1MzQ1NS4zMjMxMjU5LjIzMjU0NjkuNDc3MzMzMi43ODMzMTU5IDEuMzQ2MzIzOSAyLjQ0Nzg2MTggMi45NDk2NzM3IDYuMTE5NjU1MSAyLjk0OTY3MzdoNDguNDY3NjY5NWMuNzcxMDc2NiAwIDQuNTI4NTQ1LS4xNTkxMTExIDYuMjY2NTI3LTMuMTIxMDI0MnptLTMwLjQ4ODEyMjQtNDUuNjE1OTEwMyAyMy43OTMyMTk2IDQxLjg1ODQ0MTloLTQ3LjU3NDE5OTh6Ii8+PC9nPjwvc3ZnPg==;" parent="44" vertex="1">
                    <mxGeometry x="39.44" y="113.43" width="122.2" height="21" as="geometry"/>
                </mxCell>
                <mxCell id="98" value="" style="whiteSpace=wrap;html=1;strokeColor=none;fontSize=9;fontColor=#2c7600;fillColor=#ffe6cc;" parent="44" vertex="1">
                    <mxGeometry x="24" y="108.65" width="50" height="30.57" as="geometry"/>
                </mxCell>
                <mxCell id="140" style="edgeStyle=none;rounded=0;html=1;exitX=0.5;exitY=0;exitDx=0;exitDy=0;exitPerimeter=0;entryX=0.5;entryY=1;entryDx=0;entryDy=0;entryPerimeter=0;strokeColor=#007FFF;fontSize=12;fontColor=#D86613;startArrow=none;startFill=0;" parent="38" source="42" target="23" edge="1">
                    <mxGeometry relative="1" as="geometry"/>
                </mxCell>
                <mxCell id="26" value="" style="points=[[0,0,0],[0.25,0,0],[0.5,0,0],[0.75,0,0],[1,0,0],[0,1,0],[0.25,1,0],[0.5,1,0],[0.75,1,0],[1,1,0],[0,0.25,0],[0,0.5,0],[0,0.75,0],[1,0.25,0],[1,0.5,0],[1,0.75,0]];points=[[0,0,0],[0.25,0,0],[0.5,0,0],[0.75,0,0],[1,0,0],[0,1,0],[0.25,1,0],[0.5,1,0],[0.75,1,0],[1,1,0],[0,0.25,0],[0,0.5,0],[0,0.75,0],[1,0.25,0],[1,0.5,0],[1,0.75,0]];outlineConnect=0;fontColor=#232F3E;gradientColor=#F34482;gradientDirection=north;fillColor=#BC1356;strokeColor=#ffffff;dashed=0;verticalLabelPosition=bottom;verticalAlign=top;align=center;html=1;fontSize=12;fontStyle=0;aspect=fixed;shape=mxgraph.aws4.resourceIcon;resIcon=mxgraph.aws4.cloudwatch_2;" parent="38" vertex="1">
                    <mxGeometry x="474" y="7" width="60" height="60" as="geometry"/>
                </mxCell>
                <mxCell id="110" value="&lt;font style=&quot;font-size: 13px;&quot;&gt;Cloud Watch&lt;/font&gt;" style="text;html=1;align=center;verticalAlign=middle;resizable=0;points=[];autosize=1;strokeColor=none;fillColor=none;fontSize=9;fontColor=#000000;" parent="38" vertex="1">
                    <mxGeometry x="461" y="61" width="92" height="28" as="geometry"/>
                </mxCell>
                <mxCell id="133" style="edgeStyle=none;rounded=0;html=1;exitX=1;exitY=0.5;exitDx=0;exitDy=0;exitPerimeter=0;entryX=0.5;entryY=1;entryDx=0;entryDy=0;strokeColor=#007FFF;fontSize=12;fontColor=#D86613;startArrow=none;startFill=0;" parent="38" source="53" target="48" edge="1">
                    <mxGeometry relative="1" as="geometry">
                        <Array as="points">
                            <mxPoint x="654" y="399"/>
                        </Array>
                    </mxGeometry>
                </mxCell>
                <mxCell id="134" style="edgeStyle=none;rounded=0;html=1;exitX=0;exitY=0.5;exitDx=0;exitDy=0;exitPerimeter=0;entryX=0.5;entryY=1;entryDx=0;entryDy=0;strokeColor=#007FFF;fontSize=12;fontColor=#D86613;startArrow=none;startFill=0;" parent="38" source="53" target="44" edge="1">
                    <mxGeometry relative="1" as="geometry">
                        <Array as="points">
                            <mxPoint x="353" y="399"/>
                        </Array>
                    </mxGeometry>
                </mxCell>
                <mxCell id="137" style="edgeStyle=none;rounded=0;html=1;exitX=1;exitY=0.5;exitDx=0;exitDy=0;exitPerimeter=0;strokeColor=#007FFF;fontSize=12;fontColor=#D86613;startArrow=none;startFill=0;" parent="38" source="23" target="44" edge="1">
                    <mxGeometry relative="1" as="geometry"/>
                </mxCell>
                <mxCell id="141" style="edgeStyle=none;rounded=0;html=1;exitX=0.5;exitY=0;exitDx=0;exitDy=0;entryX=0;entryY=0.5;entryDx=0;entryDy=0;entryPerimeter=0;strokeColor=#007FFF;fontSize=12;fontColor=#D86613;startArrow=none;startFill=0;" parent="38" source="44" target="26" edge="1">
                    <mxGeometry relative="1" as="geometry">
                        <Array as="points">
                            <mxPoint x="354" y="37"/>
                        </Array>
                    </mxGeometry>
                </mxCell>
                <mxCell id="143" style="edgeStyle=none;rounded=0;html=1;exitX=0.5;exitY=0;exitDx=0;exitDy=0;entryX=1;entryY=0.5;entryDx=0;entryDy=0;entryPerimeter=0;strokeColor=#007FFF;fontSize=12;fontColor=#D86613;startArrow=none;startFill=0;" parent="38" source="48" target="26" edge="1">
                    <mxGeometry relative="1" as="geometry">
                        <Array as="points">
                            <mxPoint x="654" y="37"/>
                        </Array>
                    </mxGeometry>
                </mxCell>
                <mxCell id="144" style="edgeStyle=none;rounded=0;html=1;exitX=1;exitY=0.75;exitDx=0;exitDy=0;strokeColor=#007FFF;fontSize=12;fontColor=#D86613;startArrow=classic;startFill=1;" parent="38" source="48" target="67" edge="1">
                    <mxGeometry relative="1" as="geometry"/>
                </mxCell>
                <mxCell id="146" value="" style="group;" parent="38" vertex="1" connectable="0">
                    <mxGeometry x="889" y="248" width="60" height="87" as="geometry"/>
                </mxCell>
                <mxCell id="67" value="" style="points=[[0,0,0],[0.25,0,0],[0.5,0,0],[0.75,0,0],[1,0,0],[0,1,0],[0.25,1,0],[0.5,1,0],[0.75,1,0],[1,1,0],[0,0.25,0],[0,0.5,0],[0,0.75,0],[1,0.25,0],[1,0.5,0],[1,0.75,0]];outlineConnect=0;fontColor=#232F3E;gradientColor=#4D72F3;gradientDirection=north;fillColor=#3334B9;strokeColor=#ffffff;dashed=0;verticalLabelPosition=bottom;verticalAlign=top;align=center;html=1;fontSize=12;fontStyle=0;aspect=fixed;shape=mxgraph.aws4.resourceIcon;resIcon=mxgraph.aws4.rds;" parent="146" vertex="1">
                    <mxGeometry width="60" height="60" as="geometry"/>
                </mxCell>
                <mxCell id="104" value="&lt;font style=&quot;font-size: 13px;&quot;&gt;RDS&lt;/font&gt;" style="text;html=1;align=center;verticalAlign=middle;resizable=0;points=[];autosize=1;strokeColor=none;fillColor=none;fontSize=9;fontColor=#000000;" parent="146" vertex="1">
                    <mxGeometry x="5" y="59" width="45" height="28" as="geometry"/>
                </mxCell>
                <mxCell id="147" value="" style="group;" parent="38" vertex="1" connectable="0">
                    <mxGeometry x="889" y="369" width="74" height="81" as="geometry"/>
                </mxCell>
                <mxCell id="59" value="" style="shape=image;verticalLabelPosition=bottom;labelBackgroundColor=default;verticalAlign=top;aspect=fixed;imageAspect=0;image=data:image/svg+xml,PHN2ZyB4bWxucz0iaHR0cDovL3d3dy53My5vcmcvMjAwMC9zdmciIHdpZHRoPSI0NCIgdmlld0JveD0iMCAwIDQ0IDQ0IiBoZWlnaHQ9IjQ0IiBmaWxsPSJub25lIj48ZyBmaWxsLXJ1bGU9ImV2ZW5vZGQiIGNsaXAtcnVsZT0iZXZlbm9kZCI+PHBhdGggZmlsbD0iIzYyM2NlNCIgZD0ibTE2LjY2NCA3LjM4NCAxMC40NjggNi4wNDJ2MTIuMDg1bC0xMC40NjgtNi4wNDF6Ii8+PHBhdGggZmlsbD0iIzNjMmFhOCIgZD0ibTI4LjI3NyAxMy40MjZ2MTIuMDg1bDEwLjQ2OC02LjA0MnYtMTIuMDl6Ii8+PHBhdGggZmlsbD0iIzYyM2NlNCIgZD0ibTUuMDQ3LjYzNHYxMi4wODVsMTAuNDY4IDYuMDQ4di0xMi4wOWwtMTAuNDY4LTYuMDQ0em0xMS42MTcgMzIuMjQ0IDEwLjQ2MyA2LjA0OHYtMTIuMDlsLTEwLjQ2My02LjA0M3oiLz48L2c+PC9zdmc+;" parent="147" vertex="1">
                    <mxGeometry x="1" width="60" height="60" as="geometry"/>
                </mxCell>
                <mxCell id="103" value="&lt;font style=&quot;font-size: 13px;&quot;&gt;Terraform&lt;/font&gt;" style="text;html=1;align=center;verticalAlign=middle;resizable=0;points=[];autosize=1;strokeColor=none;fillColor=none;fontSize=9;fontColor=#000000;" parent="147" vertex="1">
                    <mxGeometry y="53" width="74" height="28" as="geometry"/>
                </mxCell>
                <mxCell id="148" value="" style="group;" parent="38" vertex="1" connectable="0">
                    <mxGeometry x="777" y="371" width="56" height="80" as="geometry"/>
                </mxCell>
                <mxCell id="41" value="" style="points=[[0,0,0],[0.25,0,0],[0.5,0,0],[0.75,0,0],[1,0,0],[0,1,0],[0.25,1,0],[0.5,1,0],[0.75,1,0],[1,1,0],[0,0.25,0],[0,0.5,0],[0,0.75,0],[1,0.25,0],[1,0.5,0],[1,0.75,0]];outlineConnect=0;fontColor=#232F3E;gradientColor=#F54749;gradientDirection=north;fillColor=#C7131F;strokeColor=#ffffff;dashed=0;verticalLabelPosition=bottom;verticalAlign=top;align=center;html=1;fontSize=12;fontStyle=0;aspect=fixed;shape=mxgraph.aws4.resourceIcon;resIcon=mxgraph.aws4.key_management_service;shadow=0;" parent="148" vertex="1">
                    <mxGeometry width="56" height="56" as="geometry"/>
                </mxCell>
                <mxCell id="102" value="&lt;font style=&quot;font-size: 13px;&quot;&gt;SSM&lt;/font&gt;" style="text;html=1;align=center;verticalAlign=middle;resizable=0;points=[];autosize=1;strokeColor=none;fillColor=none;fontSize=9;fontColor=#000000;" parent="148" vertex="1">
                    <mxGeometry x="5" y="52" width="46" height="28" as="geometry"/>
                </mxCell>
                <mxCell id="149" value="" style="group;" parent="38" vertex="1" connectable="0">
                    <mxGeometry x="32" y="85" width="67" height="89" as="geometry"/>
                </mxCell>
                <mxCell id="30" value="" style="points=[[0,0,0],[0.25,0,0],[0.5,0,0],[0.75,0,0],[1,0,0],[0,1,0],[0.25,1,0],[0.5,1,0],[0.75,1,0],[1,1,0],[0,0.25,0],[0,0.5,0],[0,0.75,0],[1,0.25,0],[1,0.5,0],[1,0.75,0]];outlineConnect=0;fontColor=#232F3E;gradientColor=#945DF2;gradientDirection=north;fillColor=#5A30B5;strokeColor=#ffffff;dashed=0;verticalLabelPosition=bottom;verticalAlign=top;align=center;html=1;fontSize=12;fontStyle=0;aspect=fixed;shape=mxgraph.aws4.resourceIcon;resIcon=mxgraph.aws4.route_53;" parent="149" vertex="1">
                    <mxGeometry x="1.5" width="61" height="61" as="geometry"/>
                </mxCell>
                <mxCell id="105" value="&lt;font style=&quot;font-size: 13px;&quot;&gt;Route53&lt;/font&gt;" style="text;html=1;align=center;verticalAlign=middle;resizable=0;points=[];autosize=1;strokeColor=none;fillColor=none;fontSize=9;fontColor=#000000;" parent="149" vertex="1">
                    <mxGeometry y="61" width="67" height="28" as="geometry"/>
                </mxCell>
                <mxCell id="150" value="" style="group;" parent="38" vertex="1" connectable="0">
                    <mxGeometry x="33" y="201.25" width="60" height="90.75" as="geometry"/>
                </mxCell>
                <mxCell id="23" value="" style="points=[[0,0,0],[0.25,0,0],[0.5,0,0],[0.75,0,0],[1,0,0],[0,1,0],[0.25,1,0],[0.5,1,0],[0.75,1,0],[1,1,0],[0,0.25,0],[0,0.5,0],[0,0.75,0],[1,0.25,0],[1,0.5,0],[1,0.75,0]];outlineConnect=0;fontColor=#232F3E;gradientColor=#945DF2;gradientDirection=north;fillColor=#5A30B5;strokeColor=#ffffff;dashed=0;verticalLabelPosition=bottom;verticalAlign=top;align=center;html=1;fontSize=12;fontStyle=0;aspect=fixed;shape=mxgraph.aws4.resourceIcon;resIcon=mxgraph.aws4.elastic_load_balancing;" parent="150" vertex="1">
                    <mxGeometry width="60" height="60" as="geometry"/>
                </mxCell>
                <mxCell id="106" value="&lt;font style=&quot;font-size: 13px;&quot;&gt;ALB&lt;/font&gt;" style="text;html=1;align=center;verticalAlign=middle;resizable=0;points=[];autosize=1;strokeColor=none;fillColor=none;fontSize=9;fontColor=#000000;" parent="150" vertex="1">
                    <mxGeometry x="8" y="62.75" width="43" height="28" as="geometry"/>
                </mxCell>
                <mxCell id="151" value="" style="group;" parent="38" vertex="1" connectable="0">
                    <mxGeometry x="32" y="308" width="61" height="87" as="geometry"/>
                </mxCell>
                <mxCell id="42" value="" style="points=[[0,0,0],[0.25,0,0],[0.5,0,0],[0.75,0,0],[1,0,0],[0,1,0],[0.25,1,0],[0.5,1,0],[0.75,1,0],[1,1,0],[0,0.25,0],[0,0.5,0],[0,0.75,0],[1,0.25,0],[1,0.5,0],[1,0.75,0]];outlineConnect=0;fontColor=#232F3E;gradientColor=#F54749;gradientDirection=north;fillColor=#C7131F;strokeColor=#ffffff;dashed=0;verticalLabelPosition=bottom;verticalAlign=top;align=center;html=1;fontSize=12;fontStyle=0;aspect=fixed;shape=mxgraph.aws4.resourceIcon;resIcon=mxgraph.aws4.certificate_manager_3;shadow=0;" parent="151" vertex="1">
                    <mxGeometry width="61" height="61" as="geometry"/>
                </mxCell>
                <mxCell id="107" value="&lt;font style=&quot;font-size: 13px;&quot;&gt;ACM&lt;/font&gt;" style="text;html=1;align=center;verticalAlign=middle;resizable=0;points=[];autosize=1;strokeColor=none;fillColor=none;fontSize=9;fontColor=#000000;" parent="151" vertex="1">
                    <mxGeometry x="7" y="59" width="47" height="28" as="geometry"/>
                </mxCell>
                <mxCell id="152" value="" style="group;" parent="38" vertex="1" connectable="0">
                    <mxGeometry x="71.22" y="360" width="85" height="61.90999999999997" as="geometry"/>
                </mxCell>
                <mxCell id="71" value="" style="outlineConnect=0;fontColor=#232F3E;gradientColor=none;fillColor=#BF0816;strokeColor=none;dashed=0;verticalLabelPosition=bottom;verticalAlign=top;align=center;html=1;fontSize=12;fontStyle=0;aspect=fixed;pointerEvents=1;shape=mxgraph.aws4.data_encryption_key;" parent="152" vertex="1">
                    <mxGeometry x="26.78" width="24.56" height="30.91" as="geometry"/>
                </mxCell>
                <mxCell id="108" value="&lt;font style=&quot;font-size: 12px;&quot;&gt;SSL(証明書)&lt;/font&gt;" style="text;html=1;align=center;verticalAlign=middle;resizable=0;points=[];autosize=1;strokeColor=none;fillColor=none;fontSize=9;fontColor=#000000;" parent="152" vertex="1">
                    <mxGeometry y="35.90999999999997" width="85" height="26" as="geometry"/>
                </mxCell>
                <mxCell id="153" value="" style="group;" parent="38" vertex="1" connectable="0">
                    <mxGeometry x="478" y="369" width="60" height="86" as="geometry"/>
                </mxCell>
                <mxCell id="53" value="" style="points=[[0,0,0],[0.25,0,0],[0.5,0,0],[0.75,0,0],[1,0,0],[0,1,0],[0.25,1,0],[0.5,1,0],[0.75,1,0],[1,1,0],[0,0.25,0],[0,0.5,0],[0,0.75,0],[1,0.25,0],[1,0.5,0],[1,0.75,0]];outlineConnect=0;fontColor=#232F3E;gradientColor=#F78E04;gradientDirection=north;fillColor=#D05C17;strokeColor=#ffffff;dashed=0;verticalLabelPosition=bottom;verticalAlign=top;align=center;html=1;fontSize=12;fontStyle=0;aspect=fixed;shape=mxgraph.aws4.resourceIcon;resIcon=mxgraph.aws4.ecs;shadow=0;" parent="153" vertex="1">
                    <mxGeometry width="60" height="60" as="geometry"/>
                </mxCell>
                <mxCell id="94" value="&lt;font style=&quot;font-size: 13px;&quot;&gt;ECR&lt;/font&gt;" style="text;html=1;align=center;verticalAlign=middle;resizable=0;points=[];autosize=1;strokeColor=none;fillColor=none;fontSize=9;fontColor=#000000;" parent="153" vertex="1">
                    <mxGeometry x="6.5" y="58" width="45" height="28" as="geometry"/>
                </mxCell>
                <mxCell id="162" value="" style="sketch=0;points=[[0,0,0],[0.25,0,0],[0.5,0,0],[0.75,0,0],[1,0,0],[0,1,0],[0.25,1,0],[0.5,1,0],[0.75,1,0],[1,1,0],[0,0.25,0],[0,0.5,0],[0,0.75,0],[1,0.25,0],[1,0.5,0],[1,0.75,0]];outlineConnect=0;fontColor=#232F3E;gradientColor=#60A337;gradientDirection=north;fillColor=#277116;strokeColor=#ffffff;dashed=0;verticalLabelPosition=bottom;verticalAlign=top;align=center;html=1;fontSize=12;fontStyle=0;aspect=fixed;shape=mxgraph.aws4.resourceIcon;resIcon=mxgraph.aws4.s3;" parent="38" vertex="1">
                    <mxGeometry x="889.68" y="151" width="59.32" height="59.32" as="geometry"/>
                </mxCell>
                <mxCell id="161" style="edgeStyle=none;rounded=0;html=1;exitX=1;exitY=0.25;exitDx=0;exitDy=0;strokeColor=#007FFF;fontSize=12;fontColor=#D86613;startArrow=classic;startFill=1;endSize=6;spacing=0;" parent="38" source="48" target="162" edge="1">
                    <mxGeometry relative="1" as="geometry">
                        <mxPoint x="789.9999999999999" y="205" as="sourcePoint"/>
                        <mxPoint x="909.32" y="205.7990892043931" as="targetPoint"/>
                    </mxGeometry>
                </mxCell>
                <mxCell id="34" value="&lt;font color=&quot;#000000&quot; style=&quot;font-size: 13px;&quot;&gt;users&lt;/font&gt;" style="outlineConnect=0;dashed=0;verticalLabelPosition=bottom;verticalAlign=top;align=center;html=1;fontSize=12;fontStyle=0;aspect=fixed;shape=mxgraph.aws4.illustration_users;pointerEvents=1;shadow=0;portConstraintRotation=0;fillColor=#000000;" parent="1" vertex="1">
                    <mxGeometry x="107" y="-1609" width="69" height="69" as="geometry"/>
                </mxCell>
                <mxCell id="132" style="edgeStyle=none;rounded=0;html=1;exitX=0.5;exitY=0;exitDx=0;exitDy=0;strokeColor=#007FFF;fontSize=12;fontColor=#D86613;startArrow=none;startFill=0;" parent="1" source="54" target="53" edge="1">
                    <mxGeometry relative="1" as="geometry"/>
                </mxCell>
                <mxCell id="135" style="edgeStyle=none;rounded=0;html=1;exitX=1;exitY=0.5;exitDx=0;exitDy=0;entryX=0.75;entryY=1;entryDx=0;entryDy=0;strokeColor=#007FFF;fontSize=12;fontColor=#D86613;startArrow=none;startFill=0;" parent="1" source="54" target="48" edge="1">
                    <mxGeometry relative="1" as="geometry">
                        <Array as="points">
                            <mxPoint x="789" y="-1005"/>
                        </Array>
                    </mxGeometry>
                </mxCell>
                <mxCell id="136" style="edgeStyle=none;rounded=0;html=1;exitX=0;exitY=0.5;exitDx=0;exitDy=0;entryX=0.25;entryY=1;entryDx=0;entryDy=0;strokeColor=#007FFF;fontSize=12;fontColor=#D86613;startArrow=none;startFill=0;" parent="1" source="54" target="44" edge="1">
                    <mxGeometry relative="1" as="geometry">
                        <Array as="points">
                            <mxPoint x="372" y="-1005"/>
                        </Array>
                    </mxGeometry>
                </mxCell>
                <mxCell id="126" style="edgeStyle=none;rounded=0;html=1;exitX=1;exitY=0.5;exitDx=0;exitDy=0;entryX=0;entryY=0.5;entryDx=0;entryDy=0;strokeColor=#007FFF;fontSize=13;fontColor=#D86613;startArrow=none;startFill=0;" parent="1" source="60" target="66" edge="1">
                    <mxGeometry relative="1" as="geometry"/>
                </mxCell>
                <mxCell id="127" style="edgeStyle=none;rounded=0;html=1;exitX=0.5;exitY=0;exitDx=0;exitDy=0;strokeColor=#007FFF;fontSize=13;fontColor=#D86613;startArrow=none;startFill=0;" parent="1" source="66" target="54" edge="1">
                    <mxGeometry relative="1" as="geometry"/>
                </mxCell>
                <mxCell id="52" value="" style="shape=image;verticalLabelPosition=bottom;labelBackgroundColor=default;verticalAlign=top;aspect=fixed;imageAspect=0;image=data:image/svg+xml,PHN2ZyB4bWxucz0iaHR0cDovL3d3dy53My5vcmcvMjAwMC9zdmciIHdpZHRoPSI0OCIgaGVpZ2h0PSI0OCIgZmlsbD0ibm9uZSIgdmlld0JveD0iMCAwIDQ4IDQ4Ij48ZyBmaWxsPSIjMDY2ZGE1Ij48cGF0aCBmaWxsLXJ1bGU9ImV2ZW5vZGQiIGQ9Ik00Ny43OTcgMzYuNTQ0YTEuNDQ2IDEuNDQ2IDAgMDAtLjUxMS0uMzAyIDMuMDY0IDMuMDY0IDAgMDAtLjY3NS0uMTUyIDUuOTY2IDUuOTY2IDAgMDAtLjY4NS0uMDQzIDQuMDQgNC4wNCAwIDAwLTIuNTQ1Ljg4di0uMTQxYS43MDUuNzA1IDAgMDAtLjIyMi0uNTIyLjczNC43MzQgMCAwMC0uNTMyLS4yMTcuNzQzLjc0MyAwIDAwLS41NC4yMTcuNzA2LjcwNiAwIDAwLS4yMjIuNTIydjYuNDc2YzAgLjIwMy4wNzQuMzc3LjIyMS41MjFhLjc0My43NDMgMCAwMC41NC4yMTcuNzM0LjczNCAwIDAwLjUzMy0uMjE3LjcwNC43MDQgMCAwMC4yMjItLjUyMXYtMy4yMzhjMC0uMzQ2LjA2Ni0uNjcuMTk5LS45NzNhMi41MSAyLjUxIDAgMDExLjM1My0xLjMyNGMuMzA5LS4xMy42NC0uMTk2Ljk5My0uMTk2LjM1OCAwIC42ODkuMDYuOTkzLjE3OC4xMjEuMDUyLjIyOC4wNzguMzIuMDc4YS43NjUuNzY1IDAgMDAuMjk3LS4wNTcuNzE0LjcxNCAwIDAwLjI0LS4xNi44MjEuODIxIDAgMDAuMTYyLS4yMzguNjg4LjY4OCAwIDAwLjA2Mi0uMjkuNjUzLjY1MyAwIDAwLS4yMDMtLjQ5OHpNMzQuNyAzOS4yODVjLjA3Ny0uMjYuMTk2LS40OTguMzU1LS43MTQuMTYtLjIxNS4zNDgtLjQuNTY2LS41NTQuMjE4LS4xNTMuNDU3LS4yNzMuNzE4LS4zNThhMi41ODIgMi41ODIgMCAwMTEuNjA2IDAgMi41ODEgMi41ODEgMCAwMTEuMjc2LjkxM2MuMTYyLjIxNS4yODQuNDUzLjM2Ni43MTN6bTUuMzE1LTIuMDczYy0uODAzLS43NzctMS43Ni0xLjE2NS0yLjg3MS0xLjE2NS0xLjEyMiAwLTIuMDguMzg4LTIuODcyIDEuMTY1LS43OTMuNzc2LTEuMTkgMS43MTMtMS4xOSAyLjgxMiAwIDEuMDk4LjM5NyAyLjAzNSAxLjE5IDIuODEyLjc5My43NzYgMS43NSAxLjE2NCAyLjg3MiAxLjE2NCAxLjAyIDAgMS45MDQtLjMyMiAyLjY1NC0uOTY2YS43MjkuNzI5IDAgMDAuMjE3LS41MzIuNzEuNzEgMCAwMC0uMjE0LS41My43NC43NCAwIDAwLS41NC0uMjA5LjgwNS44MDUgMCAwMC0uNS4xODUgMi40MiAyLjQyIDAgMDEtLjc0LjQyNiAyLjYgMi42IDAgMDEtLjg3Ny4xNDIgMi42MjEgMi42MjEgMCAwMS0xLjUyLS40ODcgMi41MSAyLjUxIDAgMDEtLjU2MS0uNTUzIDIuMzkxIDIuMzkxIDAgMDEtLjM2My0uNzE0aDUuNzQzYy4yMTIgMCAuMzkyLS4wNy41NC0uMjFhLjY5Ny42OTcgMCAwMC4yMjEtLjUyOGMwLS41NS0uMS0xLjA2LS4yOTctMS41M2EzLjg3MyAzLjg3MyAwIDAwLS44OTItMS4yODJ6bS03LjYxOC0uNDI2YzAtLjEtLjAyLS4xOTQtLjA2Mi0uMjg0cy0uMDk1LS4xNy0uMTYzLS4yMzhhLjcyNy43MjcgMCAwMC0uNTM3LS4yMTcuNzUyLjc1MiAwIDAwLS40MDYuMTE0bC00LjMzNiAyLjc2MnYtNS41MzlhLjcxMy43MTMgMCAwMC0uMjIxLS41MjkuNzM1LjczNSAwIDAwLS41MzMtLjIxNi43NDIuNzQyIDAgMDAtLjU0LjIxNi43MTMuNzEzIDAgMDAtLjIyMi41M3Y5Ljg3YzAgLjIwMy4wNzQuMzc4LjIyMi41MjUuMTQ3LjE0Ny4zMjcuMjIuNTQuMjJhLjcyOC43MjggMCAwMC41MzMtLjIyLjcxNS43MTUgMCAwMC4yMjEtLjUyNnYtMi41NjNsLjg4NS0uNTY4IDMuMzUgMy42ODVhLjcwOS43MDkgMCAwMC41MDcuMTkyLjc3Mi43NzIgMCAwMC4yOTctLjA1Ny43MTIuNzEyIDAgMDAuMjQtLjE2Yy4wNjgtLjA2OC4xMjItLjE0OC4xNjMtLjIzN3MuMDYyLS4xODUuMDYyLS4yODRhLjc0NC43NDQgMCAwMC0uMjEtLjUxOWwtMy4xMTktMy40MzYgMy4wMzktMS45MzJjLjE5My0uMTI4LjI5LS4zMjQuMjktLjU5em0tMTIuNDU1IDEuNDczYy4yMzItLjIyNS41MDItLjQwMi44MTItLjUzMi4zMS0uMTMuNjQtLjE5Ni45OTQtLjE5Ni4zMTkgMCAuNjEzLjA1My44ODQuMTU2LjI3LjEwNS41My4yNTkuNzc2LjQ2Mi4xNDUuMTE0LjMxLjE3LjQ5My4xN2EuNzMzLjczMyAwIDAwLjc1NC0uNzQ1LjcxNi43MTYgMCAwMC0uMjYxLS41NjFjLS43NDUtLjY0NC0xLjYyNi0uOTY2LTIuNjQ2LS45NjYtMS4xMjIgMC0yLjA4LjM4OC0yLjg3MiAxLjE2NS0uNzkzLjc3Ni0xLjE5IDEuNzEzLTEuMTkgMi44MTIgMCAxLjA5OC4zOTcgMi4wMzUgMS4xOSAyLjgxMi43OTIuNzc2IDEuNzUgMS4xNjQgMi44NzIgMS4xNjQgMS4wMTQgMCAxLjg5Ny0uMzIyIDIuNjQ2LS45NjZhLjc0MS43NDEgMCAwMC4yNC0uNTQ2LjcxLjcxIDAgMDAtLjIxNC0uNTMuNzQxLjc0MSAwIDAwLS41NC0uMjEuODI2LjgyNiAwIDAwLS40OC4xNTcgMi42MyAyLjYzIDAgMDEtLjc2OC40NTggMi40OTYgMi40OTYgMCAwMS0uODg0LjE1M2MtLjM1NCAwLS42ODUtLjA2NS0uOTk0LS4xOTUtLjMxLS4xMy0uNTgtLjMwOC0uODEyLS41MzNhMi40NjYgMi40NjYgMCAwMS0uNTQ4LS43OTIgMi4zOTIgMi4zOTIgMCAwMS0uMTk5LS45NzJjMC0uMzQ2LjA2Ni0uNjcuMi0uOTczLjEzMi0uMzAzLjMxNS0uNTY3LjU0Ny0uNzkyem0tNC42ODUgMi43MjdhMi41NjIgMi41NjIgMCAwMS0yLjM0NiAxLjUzIDIuNTYxIDIuNTYxIDAgMDEtMS44MDUtLjczNSAyLjUyNyAyLjUyNyAwIDAxLS41NDEtLjc5MiAyLjM3NiAyLjM3NiAwIDAxLS4yLS45NjVjMC0uMzQxLjA2Ny0uNjYzLjItLjk2NmEyLjU0IDIuNTQgMCAwMS41NC0uNzkyYy4yMjctLjIyNC40OTYtLjQwMy44MDUtLjUzNmEyLjUyIDIuNTIgMCAwMTEtLjE5OWMuMzU0IDAgLjY4NS4wNjcuOTk0LjE5OWEyLjU2NSAyLjU2NSAwIDAxMS4zNTMgMS4zMzJjLjEzMi4zLjE5OS42Mi4xOTkuOTYyIDAgLjM0LS4wNjcuNjYxLS4yLjk2MnptLjUyNS0zLjc3NGMtLjgwMi0uNzc3LTEuNzYtMS4xNjUtMi44NzEtMS4xNjUtMS4xMjIgMC0yLjA4LjM4OC0yLjg3MiAxLjE2NS0uNzkzLjc3Ni0xLjE4OSAxLjcxMy0xLjE4OSAyLjgxMiAwIDEuMDk4LjM5NiAyLjAzNSAxLjE5IDIuODEyLjc5Mi43NzYgMS43NSAxLjE2NCAyLjg3IDEuMTY0IDEuMTEyIDAgMi4wNy0uMzg4IDIuODcyLTEuMTY0Ljc5My0uNzY3IDEuMTktMS43MDUgMS4xOS0yLjgxMmE0LjAyIDQuMDIgMCAwMC0uMzAxLTEuNTI3IDMuODk2IDMuODk2IDAgMDAtLjg4OS0xLjI4NXptLTkuMzc3IDMuNzc0YTIuNTU5IDIuNTU5IDAgMDEtMi4zNDUgMS41MyAyLjU1NCAyLjU1NCAwIDAxLTEuODA1LS43MzUgMi41MjggMi41MjggMCAwMS0uNTQxLS43OTIgMi4zNzQgMi4zNzQgMCAwMS0uMi0uOTY1YzAtLjM0MS4wNjctLjY2My4yLS45NjZhMi41NCAyLjU0IDAgMDEuNTQtLjc5MmMuMjI3LS4yMjQuNDk1LS40MDMuODA1LS41MzYuMzEtLjEzMi42NDMtLjE5OSAxLS4xOTkuMzU0IDAgLjY4NS4wNjcuOTk0LjE5OWEyLjU2MiAyLjU2MiAwIDAxMS4zNTIgMS4zMzJjLjEzMy4zLjIuNjIuMi45NjIgMCAuMzQtLjA2Ny42NjEtLjIuOTYyem0uOTU0LTguMzQ3YS43NDEuNzQxIDAgMDAtLjU0LjIxLjcwOS43MDkgMCAwMC0uMjE0LjUyOHYzLjU0M2MtLjczNS0uNTgyLTEuNTgzLS44NzMtMi41NDUtLjg3My0xLjEyMiAwLTIuMDguMzg4LTIuODcyIDEuMTY1Qy4zOTYgMzcuOTg4IDAgMzguOTI1IDAgNDAuMDI0YzAgMS4wOTguMzk2IDIuMDM1IDEuMTg5IDIuODEyLjc5My43NzYgMS43NSAxLjE2NCAyLjg3MiAxLjE2NCAxLjExMSAwIDIuMDY5LS4zODggMi44NzEtMS4xNjQuNzkzLS43NjcgMS4xOS0xLjcwNSAxLjE5LTIuODEydi02LjY0N2EuNjk3LjY5NyAwIDAwLS4yMjItLjUyOS43NTcuNzU3IDAgMDAtLjU0LS4yMXptMjEuMDQ0LTE2LjQwMmgzLjcxM3YtMy4zMDVoLTMuNzEzem0tNC4zODggMGgzLjcxM3YtMy4zMDVoLTMuNzEzem0tNC4zODcgMGgzLjcxMnYtMy4zMDVIMTkuNjN6bS00LjM4OCAwaDMuNzEzdi0zLjMwNUgxNS4yNHptLTQuMzg4IDBoMy43MTN2LTMuMzA1aC0zLjcxM3ptNC4zODgtMy45NjZoMy43MTNWOC45NjZIMTUuMjR6bTQuMzg4IDBoMy43MTJWOC45NjZIMTkuNjN6bTQuMzg3IDBoMy43MTNWOC45NjZoLTMuNzEzem0wLTMuOTY2aDMuNzEzVjVoLTMuNzEzek00NC4wMjQgMTQuOGwtLjc1LS40OWMtLjgxLS41MzEtMi42NzMtLjcyNi00LjEwNy0uNDYtLjE4NS0xLjMyMy0uOTM4LTIuNDctMi4zMDctMy41MDZsLS43ODctLjUxNC0uNTI1Ljc3MWMtLjY3Mi45OTMtMS4wMDggMi4zNjktLjg5OCAzLjY4OC4wNS40NjQuMjA1IDEuMjk0LjY5MyAyLjAyMy0uNDg3LjI1Ny0xLjQ1LjYxLTIuNzIuNTg2SDguMjA2bC0uMDQ4LjI3NmMtLjIzIDEuMzI1LS4yMjUgNS40NjIgMi41MTggOC42NDIgMi4wODUgMi40MTYgNS4yMSAzLjY0MiA5LjI5IDMuNjQyIDguODQ0IDAgMTUuMzg3LTMuOTg3IDE4LjQ1MS0xMS4yMzMgMS4yMDUuMDIzIDMuOC4wMDcgNS4xMzItMi40ODdhMTIuNCAxMi40IDAgMDAuMzQ3LS42Nzl6IiBjbGlwLXJ1bGU9ImV2ZW5vZGQiLz48cGF0aCBkPSJNNDQuNjU4IDQzLjY1NmguMDM1Yy4wNCAwIC4wNzMtLjAxMy4wNzMtLjA0NSAwLS4wMjktLjAyMS0uMDQ4LS4wNjgtLjA0OGEuMTY4LjE2OCAwIDAwLS4wNC4wMDR6bS0uMDAyLjE3NWgtLjA3M3YtLjMwOWEuNjUyLjY1MiAwIDAxLjEyMS0uMDEuMi4yIDAgMDEuMTEuMDIzYy4wMTcuMDEzLjAzLjAzOC4wMy4wNjggMCAuMDM0LS4wMjYuMDYtLjA2NS4wNzJ2LjAwM2MuMDMuMDEyLjA0OC4wMzQuMDU4LjA3Ni4wMS4wNDcuMDE1LjA2NS4wMjMuMDc3aC0uMDc5Yy0uMDEtLjAxMi0uMDE1LS4wNC0uMDI1LS4wNzYtLjAwNi0uMDMzLS4wMjUtLjA0OS0uMDY1LS4wNDloLS4wMzV6bS0uMTk0LS4xNjJjMCAuMTM3LjEwNC4yNDYuMjQ2LjI0Ni4xMzkgMCAuMjQtLjEwOS4yNC0uMjQ0IDAtLjEzOC0uMTAxLS4yNDktLjI0Mi0uMjQ5cy0uMjQ0LjExMS0uMjQ0LjI0N3ptLjU2NyAwYzAgLjE3NS0uMTQuMzEyLS4zMjMuMzEyYS4zMTcuMzE3IDAgMDEtLjMyNS0uMzEyYzAtLjE3MS4xNDQtLjMwOS4zMjUtLjMwOS4xODMgMCAuMzIzLjEzOC4zMjMuMzA5Ii8+PC9nPjwvc3ZnPg==;" parent="1" vertex="1">
                    <mxGeometry x="295" y="-877" width="40" height="40" as="geometry"/>
                </mxCell>
                <mxCell id="145" style="edgeStyle=none;rounded=0;html=1;exitX=0.5;exitY=0;exitDx=0;exitDy=0;exitPerimeter=0;strokeColor=#007FFF;fontSize=12;fontColor=#D86613;startArrow=classic;startFill=1;endArrow=none;endFill=0;" parent="1" source="30" target="34" edge="1">
                    <mxGeometry relative="1" as="geometry"/>
                </mxCell>
                <mxCell id="154" value="" style="group;" parent="1" vertex="1" connectable="0">
                    <mxGeometry x="534.75" y="-1035" width="102" height="89" as="geometry"/>
                </mxCell>
                <mxCell id="54" value="" style="shape=image;verticalLabelPosition=bottom;labelBackgroundColor=default;verticalAlign=top;aspect=fixed;imageAspect=0;image=data:image/svg+xml,PHN2ZyB4bWxucz0iaHR0cDovL3d3dy53My5vcmcvMjAwMC9zdmciIHZpZXdCb3g9IjAgMCAyNCAyNCIgcm9sZT0iaW1nIj48dGl0bGU+R2l0SHViIEFjdGlvbnMgaWNvbjwvdGl0bGU+PHBhdGggZD0iTTEwLjk4NCAxMy44MzZhLjUuNSAwIDAgMS0uMzUzLS4xNDZsLS43NDUtLjc0M2EuNS41IDAgMSAxIC43MDYtLjcwOGwuMzkyLjM5MSAxLjE4MS0xLjE4YS41LjUgMCAwIDEgLjcwOC43MDdsLTEuNTM1IDEuNTMzYS41MDQuNTA0IDAgMCAxLS4zNTQuMTQ2em05LjM1My0uMTQ3bDEuNTM0LTEuNTMyYS41LjUgMCAwIDAtLjcwNy0uNzA3bC0xLjE4MSAxLjE4LS4zOTItLjM5MWEuNS41IDAgMSAwLS43MDYuNzA4bC43NDYuNzQzYS40OTcuNDk3IDAgMCAwIC43MDYtLjAwMXpNNC41MjcgNy40NTJsMi41NTctMS41ODVBMSAxIDAgMCAwIDcuMDkgNC4xN0w0LjUzMyAyLjU2QTEgMSAwIDAgMCAzIDMuNDA2djMuMTk2YTEuMDAxIDEuMDAxIDAgMCAwIDEuNTI3Ljg1em0yLjAzLTIuNDM2TDQgNi42MDJWMy40MDZsMi41NTcgMS42MXpNMjQgMTIuNWMwIDEuOTMtMS41NyAzLjUtMy41IDMuNWEzLjUwMyAzLjUwMyAwIDAgMS0zLjQ2LTNoLTIuMDhhMy41MDMgMy41MDMgMCAwIDEtMy40NiAzIDMuNTAyIDMuNTAyIDAgMCAxLTMuNDYtM2gtLjU1OGMtLjk3MiAwLTEuODUtLjM5OS0yLjQ4Mi0xLjA0MlYxN2MwIDEuNjU0IDEuMzQ2IDMgMyAzaC4wNGMuMjQ0LTEuNjkzIDEuNy0zIDMuNDYtMyAxLjkzIDAgMy41IDEuNTcgMy41IDMuNVMxMy40MyAyNCAxMS41IDI0YTMuNTAyIDMuNTAyIDAgMCAxLTMuNDYtM0g4Yy0yLjIwNiAwLTQtMS43OTQtNC00VjkuODk5QTUuMDA4IDUuMDA4IDAgMCAxIDAgNWMwLTIuNzU3IDIuMjQzLTUgNS01czUgMi4yNDMgNSA1YTUuMDA1IDUuMDA1IDAgMCAxLTQuOTUyIDQuOTk4QTIuNDgyIDIuNDgyIDAgMCAwIDcuNDgyIDEyaC41NThjLjI0NC0xLjY5MyAxLjctMyAzLjQ2LTNhMy41MDIgMy41MDIgMCAwIDEgMy40NiAzaDIuMDhhMy41MDMgMy41MDMgMCAwIDEgMy40Ni0zYzEuOTMgMCAzLjUgMS41NyAzLjUgMy41em0tMTUgOGMwIDEuMzc4IDEuMTIyIDIuNSAyLjUgMi41czIuNS0xLjEyMiAyLjUtMi41LTEuMTIyLTIuNS0yLjUtMi41UzkgMTkuMTIyIDkgMjAuNXpNNSA5YzIuMjA2IDAgNC0xLjc5NCA0LTRTNy4yMDYgMSA1IDEgMSAyLjc5NCAxIDVzMS43OTQgNCA0IDR6bTkgMy41YzAtMS4zNzgtMS4xMjItMi41LTIuNS0yLjVTOSAxMS4xMjIgOSAxMi41czEuMTIyIDIuNSAyLjUgMi41IDIuNS0xLjEyMiAyLjUtMi41em05IDBjMC0xLjM3OC0xLjEyMi0yLjUtMi41LTIuNVMxOCAxMS4xMjIgMTggMTIuNXMxLjEyMiAyLjUgMi41IDIuNSAyLjUtMS4xMjIgMi41LTIuNXptLTEzIDhhLjUuNSAwIDEgMCAxIDAgLjUuNSAwIDAgMC0xIDB6bTIgMGEuNS41IDAgMSAwIDEgMCAuNS41IDAgMCAwLTEgMHptMTIgMGMwIDEuOTMtMS41NyAzLjUtMy41IDMuNWEzLjUwMyAzLjUwMyAwIDAgMS0zLjQ2LTMuMDAyYy0uMDA3LjAwMS0uMDEzLjAwNS0uMDIxLjAwNWwtLjUwNi4wMTdoLS4wMTdhLjUuNSAwIDAgMS0uMDE2LS45OTlsLjUwNi0uMDE3Yy4wMTgtLjAwMi4wMzUuMDA2LjA1Mi4wMDdBMy41MDMgMy41MDMgMCAwIDEgMjAuNSAxN2MxLjkzIDAgMy41IDEuNTcgMy41IDMuNXptLTEgMGMwLTEuMzc4LTEuMTIyLTIuNS0yLjUtMi41UzE4IDE5LjEyMiAxOCAyMC41czEuMTIyIDIuNSAyLjUgMi41IDIuNS0xLjEyMiAyLjUtMi41eiIvPjwvc3ZnPg==;" parent="154" vertex="1">
                    <mxGeometry x="20.25" width="60" height="60" as="geometry"/>
                </mxCell>
                <mxCell id="84" value="&lt;font style=&quot;font-size: 13px;&quot;&gt;Gihtub Actions&lt;/font&gt;" style="text;html=1;align=center;verticalAlign=middle;resizable=0;points=[];autosize=1;strokeColor=none;fillColor=none;fontSize=9;fontColor=#000000;" parent="154" vertex="1">
                    <mxGeometry y="61" width="102" height="28" as="geometry"/>
                </mxCell>
                <mxCell id="155" value="" style="group;" parent="1" vertex="1" connectable="0">
                    <mxGeometry x="555" y="-914" width="60" height="83" as="geometry"/>
                </mxCell>
                <mxCell id="66" value="" style="shape=image;verticalLabelPosition=bottom;labelBackgroundColor=default;verticalAlign=top;aspect=fixed;imageAspect=0;image=data:image/svg+xml,PHN2ZyB4bWxucz0iaHR0cDovL3d3dy53My5vcmcvMjAwMC9zdmciIHZpZXdCb3g9IjAgMCAyNCAyNCI+PHBhdGggdHJhbnNmb3JtPSJtYXRyaXgoLTEgMCAwIC0xIDI0IDI0KSIgb3BhY2l0eT0iMCIgZmlsbD0iI2ZmZiIgZD0ibTAgMGgyNHYyNGgtMjR6Ii8+PHBhdGggZmlsbD0iIzIzMWYyMCIgZD0ibTEyIDFhMTAuODkgMTAuODkgMCAwIDAgLTExIDEwLjc3IDEwLjc5IDEwLjc5IDAgMCAwIDcuNTIgMTAuMjNjLjU1LjEuNzUtLjIzLjc1LS41MnMwLS45MyAwLTEuODNjLTMuMDYuNjUtMy43MS0xLjQ0LTMuNzEtMS40NGEyLjg2IDIuODYgMCAwIDAgLTEuMjItMS41OGMtMS0uNjYuMDgtLjY1LjA4LS42NWEyLjMxIDIuMzEgMCAwIDEgMS42OCAxLjExIDIuMzcgMi4zNyAwIDAgMCAzLjIuODkgMi4zMyAyLjMzIDAgMCAxIC43LTEuNDRjLTIuNDQtLjI3LTUtMS4xOS01LTUuMzJhNC4xNSA0LjE1IDAgMCAxIDEuMTEtMi45MSAzLjc4IDMuNzggMCAwIDEgLjExLTIuODRzLjkzLS4yOSAzIDEuMWExMC42OCAxMC42OCAwIDAgMSA1LjUgMGMyLjEtMS4zOSAzLTEuMSAzLTEuMWEzLjc4IDMuNzggMCAwIDEgLjExIDIuODQgNC4xNSA0LjE1IDAgMCAxIDEuMTcgMi44OWMwIDQuMTQtMi41OCA1LjA1LTUgNS4zMmEyLjUgMi41IDAgMCAxIC43NSAydjIuOTVzLjIuNjMuNzUuNTJhMTAuOCAxMC44IDAgMCAwIDcuNS0xMC4yMiAxMC44OSAxMC44OSAwIDAgMCAtMTEtMTAuNzciLz48L3N2Zz4=;" parent="155" vertex="1">
                    <mxGeometry width="60" height="60" as="geometry"/>
                </mxCell>
                <mxCell id="83" value="&lt;font style=&quot;font-size: 13px;&quot;&gt;Gihtub&lt;/font&gt;" style="text;html=1;align=center;verticalAlign=middle;resizable=0;points=[];autosize=1;strokeColor=none;fillColor=none;fontSize=9;fontColor=#000000;" parent="155" vertex="1">
                    <mxGeometry x="3.5" y="55" width="56" height="28" as="geometry"/>
                </mxCell>
                <mxCell id="156" value="" style="group;" parent="1" vertex="1" connectable="0">
                    <mxGeometry x="214" y="-919.75" width="77" height="92.75" as="geometry"/>
                </mxCell>
                <mxCell id="60" value="" style="shape=image;verticalLabelPosition=bottom;labelBackgroundColor=default;verticalAlign=top;aspect=fixed;imageAspect=0;image=data:image/svg+xml,PHN2ZyB4bWxucz0iaHR0cDovL3d3dy53My5vcmcvMjAwMC9zdmciIHZpZXdCb3g9IjAgMCAzMiAzMiI+PHBhdGggZD0ibTE5LjQ5IDNjMCAuMjc2LS4yMjQuNS0uNS41cy0uNS0uMjI0LS41LS41LjIyNC0uNS41LS41LjUuMjI0LjUuNXptLTIuNS0uNWMtLjI3NiAwLS41LjIyNC0uNS41cy4yMjQuNS41LjUuNS0uMjI0LjUtLjUtLjIyNC0uNS0uNS0uNXptLTIgMGMtLjI3NiAwLS41LjIyNC0uNS41cy4yMjQuNS41LjUuNS0uMjI0LjUtLjUtLjIyNC0uNS0uNS0uNXptMTYuMzcgMjguNWgtLjcyYzAtNC4zNDEtMi45NDEtOC4xNjEtNy4xNTMtOS4yOS0uMTQ0LS4wMzgtLjI0OC0uMTU5LS4yNjUtLjMwNy0uMDE4LS4xNDYuMDU4LS4yODkuMTg4LS4zNTggMS42NzgtLjg5OCAyLjcyLTIuNjM2IDIuNzItNC41MzQgMC0yLjg0LTIuMzA2LTUuMTUxLTUuMTQtNS4xNTEtMi44MzUgMC01LjE0MSAyLjMxMS01LjE0MSA1LjE1MSAwIDEuODk4IDEuMDQyIDMuNjM2IDIuNzIgNC41MzQuMTMuMDY5LjIwNS4yMTIuMTg4LjM1OC0uMDE3LjE0Ny0uMTIxLjI2OS0uMjY1LjMwNy00LjE5OSAxLjEyNS03LjEzMSA0Ljk0NS03LjEzMSA5LjI5aC0uNzJjMC00LjQwMiAyLjgwMS04LjMwNCA2LjkwMy05Ljc1LS4zNTktLjI2MS0uNjg2LS41NjEtLjk3My0uODloLTE1LjU3MWMtLjE5OSAwLS4zNi0uMTYxLS4zNi0uMzZ2LTE5YzAtLjE5OS4xNjEtLjM2LjM2LS4zNmgyMGMuMTk5IDAgLjM2LjE2MS4zNi4zNnY5LjY1MmMzLjA1OS4xOTIgNS40ODkgMi43NDcgNS40ODkgNS44NTkgMCAxLjg5My0uOTA5IDMuNjQ1LTIuNDE1IDQuNzM5IDQuMTE2IDEuNDQ4IDYuOTI2IDUuMzUgNi45MjYgOS43NXptLTMwLTExLjM2aDE0LjY3M2MtLjU4Mi0uOTE5LS45MDUtMS45OTktLjkwNS0zLjEyOSAwLTMuMTIgMi40NDItNS42NzkgNS41MTEtNS44NnYtNS4yOTFoLTE5LjI3OXptMC0xNWgxOS4yOHYtMy4yOGgtMTkuMjh6bTkuNjMgOS43MmgtOHYtLjcyaDh6bTAtM2gtOHYtLjcyaDh6bS0uMDAxLTNoLTh2LS43Mmg4eiIvPjxwYXRoIGZpbGw9Im5vbmUiIGQ9Im0wIDBoMzJ2MzJoLTMyeiIvPjwvc3ZnPg==;" parent="156" vertex="1">
                    <mxGeometry width="71.5" height="71.5" as="geometry"/>
                </mxCell>
                <mxCell id="82" value="&lt;font style=&quot;font-size: 13px;&quot;&gt;Developer&lt;/font&gt;" style="text;html=1;align=center;verticalAlign=middle;resizable=0;points=[];autosize=1;strokeColor=none;fillColor=none;fontSize=9;fontColor=#000000;" parent="156" vertex="1">
                    <mxGeometry y="64.75" width="77" height="28" as="geometry"/>
                </mxCell>
                <mxCell id="157" value="" style="whiteSpace=wrap;html=1;fillColor=#FFFFFF;strokeColor=none;" parent="1" vertex="1">
                    <mxGeometry x="1046" y="-1654" width="120" height="60" as="geometry"/>
                </mxCell>
                <mxCell id="158" value="" style="whiteSpace=wrap;html=1;strokeColor=none;fillColor=#FFFFFF;" parent="1" vertex="1">
                    <mxGeometry x="1046" y="-889" width="120" height="60" as="geometry"/>
                </mxCell>
                <mxCell id="159" value="" style="whiteSpace=wrap;html=1;strokeColor=none;fillColor=#FFFFFF;" parent="1" vertex="1">
                    <mxGeometry x="1" y="-888" width="120" height="60" as="geometry"/>
                </mxCell>
                <mxCell id="160" value="" style="whiteSpace=wrap;html=1;fillColor=#FFFFFF;strokeColor=none;" parent="1" vertex="1">
                    <mxGeometry y="-1652" width="82" height="55" as="geometry"/>
                </mxCell>
            </root>
        </mxGraphModel>
    </diagram>
</mxfile>